<?xml version="1.0" standalone="no"?>
<!DOCTYPE svg PUBLIC "-//W3C//DTD SVG 20010904//EN"
 "http://www.w3.org/TR/2001/REC-SVG-20010904/DTD/svg10.dtd">
<svg version="1.0" xmlns="http://www.w3.org/2000/svg"
 width="112.000000px" height="112.000000px" viewBox="0 0 112.000000 112.000000"
 preserveAspectRatio="xMidYMid meet">

<g transform="translate(0.000000,112.000000) scale(0.100000,-0.100000)"
fill="#000000" stroke="none">
<path d="M167 1048 c-15 -15 -49 -100 -95 -235 l-72 -213 0 -273 c0 -328 -3
-317 99 -317 83 0 101 14 101 83 l0 47 180 0 180 0 0 265 0 265 -210 0 c-149
0 -210 3 -210 11 0 6 21 74 47 150 l47 139 163 0 163 0 0 50 0 50 -185 0
c-179 0 -187 -1 -208 -22z m113 -523 c59 -31 69 -107 21 -156 -52 -51 -131
-32 -161 41 -16 40 2 85 44 111 38 23 58 24 96 4z"/>
<path d="M794 1032 c-122 -77 -12 -253 116 -187 37 19 50 43 50 94 0 85 -95
137 -166 93z"/>
<path d="M758 793 c-10 -2 -19 -10 -19 -16 -1 -7 -2 -157 -3 -335 -1 -380 3
-392 69 -187 l41 130 23 -60 c22 -57 33 -112 46 -238 9 -83 45 -109 95 -69 26
21 27 34 10 180 -7 59 -23 126 -41 172 -16 41 -29 86 -29 100 0 23 1 23 38
-13 44 -43 52 -45 78 -16 22 24 18 34 -63 129 l-53 61 0 74 c0 63 -3 76 -19
85 -19 10 -139 12 -173 3z"/>
</g>
</svg>
