<svg xmlns="http://www.w3.org/2000/svg" width="29.907" height="25.2" viewBox="0 0 29.907 25.2"><g transform="translate(-3523.44 -4315.757)"><g transform="translate(3529.262 4325.989)"><g transform="translate(1.92)"><path d="M3560.157,4356.907h-.916v-3.77a4.541,4.541,0,0,0-4.526-4.545h-.352a4.561,4.561,0,0,0-4.565,4.545v3.171c0,.035,0,.071,0,.105l.01.458-.916.021-.01-.458c0-.042,0-.084,0-.126v-3.171a5.478,5.478,0,0,1,5.482-5.462h.352a5.458,5.458,0,0,1,5.442,5.462Z" transform="translate(-3548.739 -4347.533)"/><path d="M3559.946,4356.7h-1.2v-3.913a4.4,4.4,0,0,0-4.384-4.4h-.352a4.418,4.418,0,0,0-4.423,4.4l.015,3.875-1.2.026-.013-.6c0-.042,0-.086,0-.129v-3.171a5.62,5.62,0,0,1,5.624-5.6h.352a5.6,5.6,0,0,1,5.584,5.6Zm-.916-.284h.632v-3.628a5.316,5.316,0,0,0-5.3-5.319h-.352a5.335,5.335,0,0,0-5.339,5.319l.009,3.61.632-.014-.009-.425v-3.171a4.7,4.7,0,0,1,4.708-4.687h.352a4.683,4.683,0,0,1,4.668,4.688Z" transform="translate(-3548.386 -4347.18)"/></g><g transform="translate(0 9.937)"><path d="M3543.221,4387.012a.891.891,0,0,1-.9-.476,3.039,3.039,0,0,1-.122-1.17,3.1,3.1,0,0,1,3.1-3.1h8.95a3.1,3.1,0,0,1,3.1,3.1c0,.142,0,.266,0,.376.006.532.01.825-.219,1.057a.864.864,0,0,1-.642.213c-.089,0-.188,0-.3-.009-.159-.007-.358-.016-.6-.016h-11.416c-.236,0-.431.008-.6.015-.129,0-.241.01-.342.01Zm-.084-.918c.022,0,.05,0,.085,0,.083,0,.186,0,.305-.009.172-.007.387-.016.641-.016h11.416c.262,0,.471.009.639.016l.21.008c0-.095,0-.22,0-.342s0-.241,0-.387a2.187,2.187,0,0,0-2.185-2.185h-8.95a2.187,2.187,0,0,0-2.185,2.185A6.487,6.487,0,0,0,3543.137,4386.093Z" transform="translate(-3542.053 -4382.123)"/><path d="M3556.136,4386.8c-.091,0-.192,0-.31-.009-.158-.007-.354-.016-.593-.016h-11.417c-.229,0-.42.008-.589.014-.141.006-.254.011-.358.011h0a1.029,1.029,0,0,1-1.034-.561,3.11,3.11,0,0,1-.134-1.228,3.246,3.246,0,0,1,3.243-3.243h8.95a3.247,3.247,0,0,1,3.243,3.243c0,.133,0,.25,0,.355.007.57.011.9-.26,1.178A1,1,0,0,1,3556.136,4386.8Zm-12.32-.31h11.417c.244,0,.445.009.606.016.113,0,.211.009.3.009a.73.73,0,0,0,.541-.17c.18-.183.185-.411.178-.955,0-.125,0-.244,0-.378a2.962,2.962,0,0,0-2.959-2.958h-8.95a3.215,3.215,0,0,0-2.849,4.07.756.756,0,0,0,.774.392h0c.1,0,.21,0,.337-.01C3543.388,4386.5,3543.583,4386.492,3543.816,4386.492Zm12.4-.6-.142,0-.174-.006h-.04c-.174-.008-.378-.017-.633-.017h-11.417c-.247,0-.455.008-.624.016-.2.008-.342.012-.417.007l-.114-.007-.018-.113a6.476,6.476,0,0,1-.027-.75,2.33,2.33,0,0,1,2.327-2.327h8.95a2.329,2.329,0,0,1,2.327,2.327c0,.145,0,.272,0,.385,0,.133,0,.254,0,.347Zm-11.277-2.916a2.045,2.045,0,0,0-2.042,2.042c0,.164,0,.415.011.587.071,0,.154,0,.247-.008.193-.008.405-.016.656-.016h11.417c.26,0,.468.009.637.016l.048,0h.023c0-.058,0-.119,0-.181,0-.126,0-.255,0-.4a2.045,2.045,0,0,0-2.042-2.042Z" transform="translate(-3541.701 -4381.771)"/></g><g transform="translate(9.539 2.826)"><path d="M3576.986,4361.532h-.034a.458.458,0,0,1-.423-.491c.006-.091.01-.184.01-.275a3.489,3.489,0,0,0-1-2.47.458.458,0,1,1,.645-.65,4.408,4.408,0,0,1,1.275,3.121c0,.114,0,.229-.012.343A.458.458,0,0,1,3576.986,4361.532Z" transform="translate(-3575.258 -4357.37)"/><path d="M3576.634,4361.321h-.045a.6.6,0,0,1-.554-.644c.006-.087.01-.176.01-.264a3.345,3.345,0,0,0-.962-2.369.6.6,0,0,1,0-.849.594.594,0,0,1,.424-.178h0a.6.6,0,0,1,.422.173,4.557,4.557,0,0,1,1.317,3.223c0,.117,0,.236-.013.353A.6.6,0,0,1,3576.634,4361.321Zm-1.129-4.02a.316.316,0,0,0-.222.54,3.633,3.633,0,0,1,1.046,2.571c0,.094,0,.19-.01.285a.315.315,0,0,0,.291.338h.024a.317.317,0,0,0,.314-.292c.008-.11.012-.222.012-.332a4.265,4.265,0,0,0-1.233-3.02A.315.315,0,0,0,3575.505,4357.3Z" transform="translate(-3574.906 -4357.016)"/></g><g transform="translate(8.272 2.01)"><path d="M3571.531,4355.619a.475.475,0,1,1-.081-.946.708.708,0,0,1,.277.072.474.474,0,0,1,.106.07l.024.022a.441.441,0,0,1,.05.061.455.455,0,0,1,.083.263v0a.458.458,0,0,1-.32.435A.448.448,0,0,1,3571.531,4355.619Z" transform="translate(-3570.849 -4354.531)"/><path d="M3571.178,4355.409a.712.712,0,0,1-.682-.63.6.6,0,0,1,.6-.6.84.84,0,0,1,.341.087.59.59,0,0,1,.136.089l.032.029a.6.6,0,0,1-.245,1A.579.579,0,0,1,3571.178,4355.409Zm-.082-.946a.316.316,0,0,0-.08.622.323.323,0,0,0,.257.025.316.316,0,0,0,.164-.482.3.3,0,0,0-.034-.042.368.368,0,0,0-.09-.063A.579.579,0,0,0,3571.1,4354.462Z" transform="translate(-3570.496 -4354.178)"/></g></g><g transform="translate(3523.44 4315.757)"><g transform="translate(0)"><path d="M3545.279,4335.71a.471.471,0,0,1-.482-.449,1.832,1.832,0,0,1,.667-1.5,2.457,2.457,0,0,1,1.269-.5,2.72,2.72,0,0,1-.523-1.21,2.965,2.965,0,0,1,.792-2.574,6.993,6.993,0,0,1,2.046-1.339,5.434,5.434,0,0,1-3.661-1.5,4.249,4.249,0,0,1-1.051-2.818,4.774,4.774,0,0,1,.172-1.3,10.25,10.25,0,0,1-1.815.5,4.508,4.508,0,0,1-3.44-.561,4.145,4.145,0,0,1-1.595-2.346,4.629,4.629,0,0,1-1.743,1.938,7.193,7.193,0,0,1-3.1.78,4.812,4.812,0,0,1-2.1-.53c.565,1.889.4,3.283-.486,4.32a5.781,5.781,0,0,1-3.272,1.389c.125.056.234.109.322.155a4.178,4.178,0,0,1,2.6,3.232,2.933,2.933,0,0,1-.825,2.35,4.283,4.283,0,0,1,1.607.489.445.445,0,0,1,.181.625.5.5,0,0,1-.658.171,3.326,3.326,0,0,0-2.684-.2.492.492,0,0,1-.62-.253.45.45,0,0,1,.252-.594,2.608,2.608,0,0,0,1.79-2.481c-.159-1.261-.9-1.887-2.12-2.543a12.755,12.755,0,0,0-2.475-.883.459.459,0,0,1-.383-.536.482.482,0,0,1,.565-.364h0c1.271.23,4.2-.245,4.968-1.138.87-1.016.793-2.591-.241-4.958a.447.447,0,0,1,.211-.576.5.5,0,0,1,.627.135,3.75,3.75,0,0,0,2.731,1.271h.008a6.406,6.406,0,0,0,2.561-.625c1.325-.842,1.9-2.125,1.881-4.253q0-.159-.006-.319a.484.484,0,0,1,.965-.018c0,.112.006.226.007.341a15.187,15.187,0,0,0,.3,2.571,3.291,3.291,0,0,0,1.308,2.116,3.659,3.659,0,0,0,2.686.39,6,6,0,0,0,2.662-1.02c.022-.03.044-.061.066-.09a.5.5,0,0,1,.656-.117.445.445,0,0,1,.152.617,1.239,1.239,0,0,1-.086.12,3.651,3.651,0,0,0,.15,4.424c1.241,1.385,3.837,1.253,5.232,1.182l.121-.006a.48.48,0,0,1,.5.354.453.453,0,0,1-.283.524c-.363.146-.694.269-1.015.388a7.836,7.836,0,0,0-2.993,1.641,2.1,2.1,0,0,0-.516,1.777,1.922,1.922,0,0,0,1.16,1.45.448.448,0,0,1,.244.553.486.486,0,0,1-.543.308,2.523,2.523,0,0,0-1.933.237.927.927,0,0,0-.328.783.47.47,0,0,1-.473.467Z" transform="translate(-3523.793 -4316.111)"/><path d="M3544.923,4335.5a.62.62,0,0,1-.632-.588,1.964,1.964,0,0,1,.719-1.608,2.494,2.494,0,0,1,1.112-.493,2.868,2.868,0,0,1-.417-1.083,3.106,3.106,0,0,1,.834-2.7,6.869,6.869,0,0,1,1.634-1.151,5.159,5.159,0,0,1-3.258-1.494,4.388,4.388,0,0,1-1.085-2.91,4.892,4.892,0,0,1,.112-1.076,10.587,10.587,0,0,1-1.578.407,4.651,4.651,0,0,1-3.555-.588,4.225,4.225,0,0,1-1.54-2.073,4.843,4.843,0,0,1-1.624,1.67,7.369,7.369,0,0,1-3.177.8h-.01a4.831,4.831,0,0,1-1.863-.407,4.314,4.314,0,0,1-.6,4.145,5.355,5.355,0,0,1-2.934,1.362,4.259,4.259,0,0,1,2.62,3.308,2.993,2.993,0,0,1-.69,2.26,4.457,4.457,0,0,1,1.4.472.6.6,0,0,1,.3.363.571.571,0,0,1-.06.456.626.626,0,0,1-.383.282.654.654,0,0,1-.48-.058,3.164,3.164,0,0,0-2.554-.189.641.641,0,0,1-.812-.331.593.593,0,0,1,.33-.778,2.469,2.469,0,0,0,1.7-2.334c-.151-1.2-.864-1.8-2.044-2.436a12.5,12.5,0,0,0-2.429-.866.6.6,0,0,1-.5-.7.631.631,0,0,1,.74-.477c1.209.219,4.1-.246,4.823-1.088.831-.971.747-2.5-.264-4.813a.586.586,0,0,1,.277-.755.654.654,0,0,1,.821.176,3.581,3.581,0,0,0,2.608,1.211,6.312,6.312,0,0,0,2.484-.6c1.287-.818,1.829-2.055,1.814-4.134,0-.1-.006-.211-.007-.318a.64.64,0,0,1,1.068-.442.587.587,0,0,1,.2.418c0,.113.006.228.007.344a15.073,15.073,0,0,0,.3,2.545,3.156,3.156,0,0,0,1.251,2.029,3.5,3.5,0,0,0,2.567.363,5.859,5.859,0,0,0,2.573-.971l.059-.082a.654.654,0,0,1,.86-.153.581.581,0,0,1,.2.809,1.342,1.342,0,0,1-.1.134,3.533,3.533,0,0,0,.146,4.245c1.192,1.331,3.74,1.2,5.107,1.132l.121-.006a.629.629,0,0,1,.65.465.593.593,0,0,1-.371.688c-.364.145-.7.269-1.018.389a7.717,7.717,0,0,0-2.94,1.61,1.949,1.949,0,0,0-.474,1.653,1.783,1.783,0,0,0,1.078,1.345.593.593,0,0,1,.319.726.64.64,0,0,1-.711.4,2.387,2.387,0,0,0-1.809.205.8.8,0,0,0-.276.672.577.577,0,0,1-.176.428.644.644,0,0,1-.443.185Zm-.551-13.567-.076.274a4.648,4.648,0,0,0-.167,1.266,4.106,4.106,0,0,0,1.014,2.727,5.2,5.2,0,0,0,3.558,1.45l.553.048-.5.223a6.807,6.807,0,0,0-2,1.312,2.823,2.823,0,0,0-.749,2.451,2.582,2.582,0,0,0,.5,1.149l.148.193-.249.031a2.322,2.322,0,0,0-1.191.464,1.694,1.694,0,0,0-.614,1.387.327.327,0,0,0,.333.31v0a.343.343,0,0,0,.238-.1.306.306,0,0,0,.093-.225,1.059,1.059,0,0,1,.38-.894,2.662,2.662,0,0,1,2.055-.269.335.335,0,0,0,.375-.212.311.311,0,0,0-.168-.381,2.058,2.058,0,0,1-1.24-1.555,2.242,2.242,0,0,1,.559-1.9,7.931,7.931,0,0,1,3.04-1.671c.321-.12.651-.243,1.012-.388a.311.311,0,0,0,.2-.361.33.33,0,0,0-.342-.245l-.121.006c-1.419.072-4.062.208-5.351-1.231a3.77,3.77,0,0,1-.16-4.6,1.243,1.243,0,0,0,.082-.113.305.305,0,0,0-.1-.425.344.344,0,0,0-.452.08l-.064.088a5.958,5.958,0,0,1-2.758,1.079,3.8,3.8,0,0,1-2.8-.417,3.426,3.426,0,0,1-1.364-2.2,15.3,15.3,0,0,1-.307-2.594c0-.117,0-.23-.007-.341a.308.308,0,0,0-.1-.221.3.3,0,0,0-.233-.086.326.326,0,0,0-.328.319c0,.105,0,.21.007.316.015,2.19-.567,3.5-1.947,4.376a6.5,6.5,0,0,1-2.643.649,3.921,3.921,0,0,1-2.86-1.331.343.343,0,0,0-.432-.092.308.308,0,0,0-.146.4c1.058,2.42,1.127,4.042.219,5.1-.808.943-3.776,1.431-5.109,1.188a.334.334,0,0,0-.392.25.317.317,0,0,0,.264.37,12.971,12.971,0,0,1,2.519.9c1.264.678,2.028,1.329,2.194,2.65a2.749,2.749,0,0,1-1.877,2.628.312.312,0,0,0-.174.41.337.337,0,0,0,.427.174,3.48,3.48,0,0,1,2.811.207.343.343,0,0,0,.252.03.327.327,0,0,0,.2-.148.3.3,0,0,0,.031-.24.315.315,0,0,0-.156-.191,4.156,4.156,0,0,0-1.548-.471l-.285-.028.187-.206a2.806,2.806,0,0,0,.789-2.24,4.052,4.052,0,0,0-2.527-3.125c-.085-.045-.191-.1-.312-.15l-.429-.193.469-.076a5.519,5.519,0,0,0,3.179-1.338c.854-1,1-2.368.458-4.191l-.1-.32.31.155a4.487,4.487,0,0,0,2.032.513,7,7,0,0,0,3.012-.756,4.52,4.52,0,0,0,1.689-1.879l.175-.367.106.39a4.011,4.011,0,0,0,1.54,2.268,4.355,4.355,0,0,0,3.321.535,10.147,10.147,0,0,0,1.785-.488Z" transform="translate(-3523.44 -4315.757)"/></g></g><g transform="translate(3532.105 4317.312)"><g transform="translate(0 0)"><path d="M3553.853,4324.249a.458.458,0,0,1-.409-.251l-.846-1.667a.458.458,0,1,1,.817-.415l.845,1.668a.457.457,0,0,1-.2.615A.449.449,0,0,1,3553.853,4324.249Z" transform="translate(-3552.406 -4321.522)"/><path d="M3553.5,4324.037a.6.6,0,0,1-.536-.328l-.845-1.668a.6.6,0,0,1,.264-.807.6.6,0,0,1,.807.264l.846,1.668a.6.6,0,0,1-.535.872Zm-.846-2.584a.312.312,0,0,0-.142.034.316.316,0,0,0-.139.425l.845,1.667a.322.322,0,0,0,.424.139.316.316,0,0,0,.139-.425l-.846-1.667a.315.315,0,0,0-.184-.158A.324.324,0,0,0,3552.654,4321.453Z" transform="translate(-3552.054 -4321.168)"/></g></g><g transform="translate(3525.453 4322.772)"><g transform="translate(0)"><path d="M3532.819,4341.511a.458.458,0,0,1-.3-.109l-1.421-1.215a.458.458,0,1,1,.6-.7l1.421,1.215a.458.458,0,0,1-.3.806Z" transform="translate(-3530.798 -4339.238)"/><path d="M3532.467,4341.3a.6.6,0,0,1-.39-.145l-1.421-1.215a.6.6,0,1,1,.78-.912l1.421,1.215a.6.6,0,0,1-.391,1.056Zm-1.421-2.131a.316.316,0,0,0-.206.556l1.421,1.215a.324.324,0,0,0,.445-.035.316.316,0,0,0-.035-.445l-1.421-1.215A.313.313,0,0,0,3531.047,4339.169Z" transform="translate(-3530.446 -4338.885)"/></g></g><g transform="translate(3524.478 4331.324)"><g transform="translate(0 0)"><path d="M3528.991,4368.638H3528a.458.458,0,1,1,0-.916h.987a.458.458,0,0,1,0,.916Z" transform="translate(-3527.404 -4367.58)"/><path d="M3528.638,4368.428h-.987a.6.6,0,1,1,0-1.2h.987a.6.6,0,0,1,0,1.2Zm-.987-.917a.316.316,0,0,0,0,.632h.987a.316.316,0,0,0,0-.632Z" transform="translate(-3527.051 -4367.227)"/></g></g><g transform="translate(3548.459 4331.25)"><g transform="translate(0 0)"><path d="M3607.986,4368.393h-1.48a.458.458,0,1,1,0-.916h1.48a.458.458,0,0,1,0,.916Z" transform="translate(-3605.906 -4367.334)"/><path d="M3607.633,4368.182h-1.48a.6.6,0,1,1,0-1.2h1.48a.6.6,0,0,1,0,1.2Zm-1.48-.916a.316.316,0,0,0,0,.632h1.48a.316.316,0,1,0,0-.632Z" transform="translate(-3605.553 -4366.981)"/></g></g><g transform="translate(3546.856 4323.198)"><path d="M3600.926,4342.664a.458.458,0,0,1-.267-.83l1.321-.948a.458.458,0,0,1,.534.744l-1.321.949A.459.459,0,0,1,3600.926,4342.664Z" transform="translate(-3600.325 -4340.658)"/><path d="M3600.573,4342.454a.6.6,0,0,1-.488-.25.6.6,0,0,1,.137-.837l1.321-.949a.6.6,0,1,1,.7.976l-1.321.948A.6.6,0,0,1,3600.573,4342.454Zm1.32-1.864a.314.314,0,0,0-.184.059l-1.321.948a.317.317,0,0,0-.072.441.323.323,0,0,0,.44.072l1.322-.948a.316.316,0,0,0-.185-.572Z" transform="translate(-3599.972 -4340.305)"/></g><g transform="translate(3540.706 4317.312)"><g transform="translate(0 0)"><path d="M3581.4,4324.5a.452.452,0,0,1-.2-.048.458.458,0,0,1-.205-.614l.959-1.917a.458.458,0,0,1,.819.41l-.958,1.917A.459.459,0,0,1,3581.4,4324.5Z" transform="translate(-3580.797 -4321.522)"/><path d="M3581.045,4324.287a.589.589,0,0,1-.268-.064.6.6,0,0,1-.269-.805l.958-1.917a.6.6,0,1,1,1.074.537l-.958,1.917A.6.6,0,0,1,3581.045,4324.287Zm.959-2.833a.306.306,0,0,0-.1.017.311.311,0,0,0-.183.158l-.958,1.917a.316.316,0,0,0,.141.423.321.321,0,0,0,.424-.141l.958-1.917a.316.316,0,0,0-.282-.457Z" transform="translate(-3580.445 -4321.168)"/></g></g><g transform="translate(3527.385 4318.288)"><g transform="translate(0 0)"><path d="M3538.265,4326.036a.489.489,0,1,1-.143-.963.481.481,0,0,1,.532.264.458.458,0,0,1-.389.7Z" transform="translate(-3537.523 -4324.919)"/><path d="M3537.912,4325.825a.607.607,0,0,1-.259-.059.6.6,0,0,1,.1-1.189.621.621,0,0,1,.668.33.6.6,0,0,1-.51.917Zm-.042-.974a.329.329,0,0,0-.072.008l-.029,0a.317.317,0,0,0-.312.274.314.314,0,0,0,.263.353l.044.015a.321.321,0,0,0,.314-.011.316.316,0,0,0,.1-.436A.368.368,0,0,0,3537.87,4324.851Z" transform="translate(-3537.17 -4324.567)"/></g></g><g transform="translate(3545.823 4318.862)"><g transform="translate(0 0)"><path d="M3598.416,4328.063a.458.458,0,0,1-.366-.733h0l.016-.021h0l.046-.061a.458.458,0,0,1,.733.549l0,.006-.006.008-.052.07h0A.443.443,0,0,1,3598.416,4328.063Z" transform="translate(-3597.816 -4326.92)"/><path d="M3598.064,4327.852a.6.6,0,0,1-.537-.332.586.586,0,0,1-.022-.48l-.023-.012.165-.22a.6.6,0,0,1,.84-.121.6.6,0,0,1,.241.481.6.6,0,0,1-.119.359l-.156.208-.016-.014A.563.563,0,0,1,3598.064,4327.852Zm-.244-.8,0,.007a.316.316,0,0,0,.249.51.3.3,0,0,0,.256-.134l.049-.063a.329.329,0,0,0,.073-.2.315.315,0,0,0-.127-.253.31.31,0,0,0-.234-.06.314.314,0,0,0-.208.124Z" transform="translate(-3597.464 -4326.567)"/></g></g><g transform="translate(3552.073 4326.996)"><g transform="translate(0 0)"><path d="M3619.13,4354.366a.464.464,0,0,1-.069-.005.481.481,0,0,1-.434-.507.5.5,0,0,1,.512-.446.475.475,0,0,1,.452.317.482.482,0,0,1-.182.546A.458.458,0,0,1,3619.13,4354.366Zm-.279-.821a.439.439,0,0,0-.126.475.447.447,0,0,0,.415.3.425.425,0,0,0,.4-.4.44.44,0,0,0-.342-.467l-.069.453Z" transform="translate(-3618.485 -4353.265)"/><path d="M3618.778,4354.155a.568.568,0,0,1-.091-.007.62.62,0,0,1-.553-.659.636.636,0,0,1,.654-.577.614.614,0,0,1,.356,1.119A.6.6,0,0,1,3618.778,4354.155Zm-.273-.722a.309.309,0,0,0,0,.188.3.3,0,0,0,.3.206Zm.453-.116-.074.488a.3.3,0,0,0,.164-.247A.3.3,0,0,0,3618.958,4353.317Z" transform="translate(-3618.132 -4352.912)"/></g></g></g></svg>