<svg id="Capa_1" data-name="Capa 1" xmlns="http://www.w3.org/2000/svg" viewBox="0 0 79.72 79.73"><title>IconoMiCasa</title><g id="search_home" data-name="search home"><path d="M78.73,28.07a1.23,1.23,0,0,0-.51-1L42.9,1.93a5.42,5.42,0,0,0-6.07,0L1.49,27.07a1.18,1.18,0,0,0-.51,1v9.51A1.26,1.26,0,0,0,2.23,38.8h4.6V75.63a3.1,3.1,0,0,0,3.09,3.11H69.77a3.06,3.06,0,0,0,3.11-3V38.8h4.61a1.21,1.21,0,0,0,1.21-1.21h0Zm-7.07,8.32a1.22,1.22,0,0,0-1.21,1.21V75.66a.66.66,0,0,1-.18.48.7.7,0,0,1-.49.2H9.94a.67.67,0,0,1-.66-.68h0v-38a1.23,1.23,0,0,0-1.21-1.23H3.41V28.75L38.24,4a2.9,2.9,0,0,1,3.24,0L76.3,28.75v7.66Z" transform="translate(0 0)" style="fill:#414040"/><path d="M69.78,79.73H9.94a4.1,4.1,0,0,1-4.09-4.1V39.79H2.24A2.26,2.26,0,0,1,0,37.58V28.07a2.2,2.2,0,0,1,.92-1.81L36.25,1.13a6.34,6.34,0,0,1,7.23,0L78.79,26.26a2.23,2.23,0,0,1,.93,1.79v9.52a2.21,2.21,0,0,1-2.2,2.21H73.89V75.63a4.08,4.08,0,0,1-4.07,4.09h0ZM39.78,2a4.07,4.07,0,0,0-2.41.75L2.07,27.87a.25.25,0,0,0-.09.2v9.51a.27.27,0,0,0,.26.23H7.83V75.63a2.12,2.12,0,0,0,2.11,2.12H69.78a2.08,2.08,0,0,0,2.12-2V37.81h5.59a.22.22,0,0,0,.22-.22h0V28.07a.27.27,0,0,0-.11-.19L42.3,2.76A4.38,4.38,0,0,0,39.82,2Zm30,75.32H9.94a1.66,1.66,0,0,1-1.65-1.67h0v-38a.24.24,0,0,0-.22-.24H2.42V28.22L37.66,3.07a3.91,3.91,0,0,1,4.39,0L77.29,28.15v9.16H71.66a.24.24,0,0,0-.22.22V75.59A1.62,1.62,0,0,1,71,76.77a1.66,1.66,0,0,1-1.19.54Zm-.32-1.65Zm-59.19-.33H69.49V37.58a2.22,2.22,0,0,1,2.2-2.2h3.65V29.22L40.94,4.73a1.91,1.91,0,0,0-2.08,0L4.43,29.23V35.4H8.1a2.21,2.21,0,0,1,2.2,2.22h0Z" transform="translate(0 0)" style="fill:#414040"/><path d="M55.49,6.07a.67.67,0,0,1,.64-.65H69.2a.63.63,0,0,1,.64.62h0v11.6l2.43,1.75V6.07A3.06,3.06,0,0,0,69.2,3H56.15a3,3,0,0,0-3,2.84l2.38,1.69Z" transform="translate(0 0)" style="fill:#414040"/><path d="M73.28,21.32l-4.41-3.16V6.42H56.49v3L52.08,6.29V5.73a4.07,4.07,0,0,1,4-3.75H69.15a4.05,4.05,0,0,1,4.06,4Zm-2.43-4.18.45.33V6.07A2.07,2.07,0,0,0,69.22,4H56.15a2.06,2.06,0,0,0-1.93,1.41l.35.25a1.65,1.65,0,0,1,1.58-1.21H69.22a1.63,1.63,0,0,1,1.63,1.61h0Z" transform="translate(0 0)" style="fill:#414040"/><path d="M60.89,57.12,54,50.37a1.32,1.32,0,0,0-.5-.29,18.53,18.53,0,1,0-9.63,9.63,1.22,1.22,0,0,0,.29.52L51.05,67a7,7,0,0,0,9.84-9.89ZM20.43,42.71a16.09,16.09,0,1,1,16.08,16.1h0a16.12,16.12,0,0,1-16.06-16.1ZM59.18,65.27a4.67,4.67,0,0,1-6.43,0L46,58.62a18.61,18.61,0,0,0,6.42-6.42l6.77,6.65a4.54,4.54,0,0,1,0,6.42Z" transform="translate(0 0)" style="fill:#414040"/><path d="M56,70a8,8,0,0,1-5.62-2.3l-6.86-6.77A19.48,19.48,0,1,1,54.75,49.7l6.85,6.72A8,8,0,0,1,56,70Zm-11.4-11.4.25.8a.16.16,0,0,0,0,.12l6.87,6.77a6,6,0,0,0,9-7.9,6.47,6.47,0,0,0-.59-.58l-6.87-6.75A.27.27,0,0,0,53.2,51l-.87-.29,7.54,7.42a5.52,5.52,0,0,1,0,7.81h0a5.7,5.7,0,0,1-7.82,0Zm3,.17,5.92,5.79a3.67,3.67,0,0,0,5,0,3.56,3.56,0,0,0,0-5L52.6,53.78a19.76,19.76,0,0,1-5,5ZM36.49,25.17a17.54,17.54,0,1,0,7,33.63l1-.42,1-.61a17.52,17.52,0,0,0,6.08-6.08l.63-1,.41-1A17.54,17.54,0,0,0,36.49,25.17Zm0,34.63A17.09,17.09,0,1,1,53.57,42.7h0A17.11,17.11,0,0,1,36.49,59.8Zm0-32.2a15.11,15.11,0,1,0,15.1,15.12h0A15.12,15.12,0,0,0,36.49,27.6Z" transform="translate(0 0)" style="fill:#414040"/><path d="M37.49,30a13.22,13.22,0,0,0-13.2,13.21,1.22,1.22,0,0,0,2.43,0A10.79,10.79,0,0,1,37.49,32.44,1.22,1.22,0,1,0,37.71,30,.81.81,0,0,0,37.49,30Z" transform="translate(0 0)" style="fill:#414040"/><path d="M25.49,45.42a2.21,2.21,0,0,1-2.21-2.2A14.21,14.21,0,0,1,37.49,29.07a2.21,2.21,0,0,1,.3,4.41,1.5,1.5,0,0,1-.3,0,9.8,9.8,0,0,0-9.78,9.79A2.21,2.21,0,0,1,25.49,45.42ZM37.49,31A12.24,12.24,0,0,0,25.28,43.22c0,.24.45.26.45,0A11.77,11.77,0,0,1,37.49,31.45a.22.22,0,0,0,.27-.18.23.23,0,0,0-.17-.27A.17.17,0,0,0,37.49,31Z" transform="translate(0 0)" style="fill:#414040"/></g></svg>