<svg id="Capa_1" data-name="Capa 1" xmlns="http://www.w3.org/2000/svg" viewBox="0 0 80.05 78.02"><title>IconoVisitas</title><g id="surveillance"><path d="M60.62,41c-1.09,2-2.76,2.7-5.79,2.7,0,0-.41.83-.43.83-1.67,2.86-1.77,5.91-.22,6.86s4.31-.6,6-3.5S62.1,42.07,60.62,41Z" transform="translate(0 -0.05)" style="fill:#414040"/><path d="M55.26,52.71a3.16,3.16,0,0,1-1.59-.43c-2.07-1.26-2.12-4.79-.12-8.2h0l.1-.22c.32-.66.53-1.09,1.17-1.09,2.77,0,4-.57,4.91-2.18l.53-1,.91.65c2,1.36,1.91,4.9-.11,8.21A10,10,0,0,1,57.64,52,4.9,4.9,0,0,1,55.26,52.71Zm0-7.64h0c-1.45,2.47-1.49,5-.56,5.51a2,2,0,0,0,2-.31,8.43,8.43,0,0,0,2.72-2.85,7,7,0,0,0,1.2-4.62,6.81,6.81,0,0,1-5.14,1.92c-.07.12-.15.24-.23.35Z" transform="translate(0 -0.05)" style="fill:#414040"/><path d="M68.45,36.19c.19.1.09-.27-.85-1.64a6.69,6.69,0,0,1-2.33,1c2.22,2.4,1.3,6.68.37,9.41a22.74,22.74,0,0,1-7,10.25c-1.89,1.55-5.1,3.52-7.57,2C48,55.36,49,50.19,49.88,47.4L47.56,47a16.61,16.61,0,0,0-.67,7.79L8.34,31.38h0c-4.18-2.74-1.22-10.31.52-13.54a7.22,7.22,0,0,1-1.52-2.33h0A22.16,22.16,0,0,0,4,25.82c-.1,2.6.49,6.3,3.13,7.63h0L49.83,59.26h0c5.26,3.16,11.52-2.61,14.39-6.5C67.27,48.66,70.57,41.54,68.45,36.19Z" transform="translate(0 -0.05)" style="fill:#414040"/><path d="M53.07,61.22a7.14,7.14,0,0,1-3.5-.91h-.73v-.44L6.6,34.38c-3.63-1.84-3.72-7-3.66-8.54a22.9,22.9,0,0,1,3.4-10.56V10.46l1.91,4.73a6.06,6.06,0,0,0,1.3,2l.51.52-.32.67c-1.75,3.26-4.17,10-.91,12.2h0L45.74,52.83a19.67,19.67,0,0,1,.91-6.19l.26-.86,4.29.83-.33,1.06c-.65,2.08-1.88,7.11.76,8.71,2.09,1.26,5.19-1,6.43-2a21.63,21.63,0,0,0,6.66-9.79c.77-2.26,1.77-6.34-.15-8.43l-1.19-1.29,1.72-.35a5.86,5.86,0,0,0,2-.83l.81-.53.55.8a4.64,4.64,0,0,1,1.11,2.25c1.9,5.52-1.2,12.65-4.51,17.16C62.59,56.7,57.84,61.22,53.07,61.22Zm-2.61-2.68c4.61,2.63,10.31-2.71,13-6.31,3.09-4.21,6-10.84,4.1-15.67l-.27-.68-.4.18c1.4,2.7.67,6.39-.28,9.19A23.69,23.69,0,0,1,59.32,56c-1.94,1.58-5.65,4-8.71,2.13-3.31-2-2.78-6.72-1.93-9.94l-.36-.07a15,15,0,0,0-.4,6.45l.43,2.19L7.82,32.24C2.82,29,6.44,20.54,7.68,18c-.11-.15-.23-.3-.33-.45A20,20,0,0,0,5,25.9c-.1,2.48.49,5.47,2.39,6.6H7.5l.22.21Z" transform="translate(0 -0.05)" style="fill:#414040"/><path d="M75,53.38h0a26.61,26.61,0,0,0,4-12c.18-4.06-1.12-7.13-3.65-8.66h0L22.25,2h0C17.19-1,9.12,3.45,3.86,12.16a1.2,1.2,0,0,0,0,1.19C4,13.63,19.24,41.84,58,44.7a1.21,1.21,0,0,0,1.14-.6c2.56-4.34,7.68-8.51,11.65-9.51a4.47,4.47,0,0,1,3.42.23c1.73,1,2.61,3.34,2.46,6.46a23.46,23.46,0,0,1-3.35,10.34c-2.84-.2-7.26-.53-9.56-.95a1.22,1.22,0,1,0-.44,2.41c2.66.47,7.64.82,10.62,1H74a1.26,1.26,0,0,0,.54-.13l.12-.08a1.62,1.62,0,0,0,.33-.31l.06-.06C75.12,53.44,75,53.38,75,53.38ZM57.38,42.14C23.64,39.35,8.68,16.72,6.3,12.75,10.72,5.81,17.35,1.86,21,4.07h0L69.79,32.26c-4.31,1.18-9.48,5.3-12.41,9.84Z" transform="translate(0 -0.05)" style="fill:#414040"/><path d="M74,55h-.33c-3-.21-7.89-.57-10.54-1a2.25,2.25,0,0,1-1.43-.91,2.22,2.22,0,0,1,2.2-3.44c2.25.4,6.71.74,8.84.89a22.22,22.22,0,0,0,2.93-9.35c.12-2.74-.58-4.72-2-5.57A3.5,3.5,0,0,0,71,35.5c-3.69.92-8.65,5-11,9.06a2.2,2.2,0,0,1-2,1.08C19,42.77,3.55,15,2.92,13.77A2.2,2.2,0,0,1,3,11.59C8.44,2.59,17-2,22.48,1h0l.25.13L75.65,31.69h.13l.19.19.39.25c2.55,1.8,3.85,5.06,3.67,9.25a27.3,27.3,0,0,1-4.09,12.41l-.3.44a2.88,2.88,0,0,1-.48.44l-.22.13A2.12,2.12,0,0,1,74,55Zm.26-1.66.4.46-.32-.46ZM63.48,51.55a.24.24,0,0,0-.24.19.22.22,0,0,0,0,.16.23.23,0,0,0,.15.1c2.55.46,7.42.8,10.33,1h.18l.11.12V53h0l.2-.22A25.36,25.36,0,0,0,78,41.25c.16-3.56-.89-6.25-3-7.63h-.72v-.43L21.74,2.77c-4.5-2.7-12.15,1.7-17,9.8a.22.22,0,0,0,0,.22c.61,1.14,15.53,28,53.33,30.82a.2.2,0,0,0,.2-.1c2.69-4.55,8.07-8.93,12.27-10a5.36,5.36,0,0,1,4.17.34c2.06,1.25,3.11,3.86,2.94,7.36A24.7,24.7,0,0,1,74.17,52l-.31.54h-.62c-3-.21-7.34-.54-9.67-1Zm-5.59-8.41-.6,0c-34-2.82-49.15-25.38-51.84-29.87l-.32-.53.33-.51C10.19,4.76,17.06.82,21.27,3H22v.41L72.34,32.54l-2.26.64C66,34.32,61,38.31,58.21,42.64ZM7.47,12.73C10.79,18,25.4,38.23,56.88,41.07a27.07,27.07,0,0,1,10.6-9L20.76,5H20V4.64C16.87,3.38,11.36,6.9,7.47,12.73Z" transform="translate(0 -0.05)" style="fill:#414040"/><path d="M30.74,60.88A1.63,1.63,0,0,1,29.1,62.5H14.8a1.22,1.22,0,0,0,0,2.44h6v1a8.7,8.7,0,0,1-17.39.59,5.81,5.81,0,0,1,0-.59V57.09H23.33a1.21,1.21,0,0,0,1.22-1.2V46.21l-2.43-1.48v9.92H2.21A1.22,1.22,0,0,0,1,55.87H1V65.94a11.13,11.13,0,0,0,22.26,0v-1H29a4.08,4.08,0,0,0,4.09-4.06v-9.5L30.74,49.9Z" transform="translate(0 -0.05)" style="fill:#414040"/><path d="M12.12,78.07A12.15,12.15,0,0,1,0,65.94V55.87a2.21,2.21,0,0,1,2.21-2.21H21.15V43l4.42,2.67V55.87a2.23,2.23,0,0,1-2.22,2.21H4.42v7.86a7.71,7.71,0,0,0,15.41.56,5.23,5.23,0,0,0,0-.56h-5a2.21,2.21,0,0,1,0-4.42H29a.64.64,0,0,0,.66-.62h0V48.14l4.42,2.67V60.88A5.06,5.06,0,0,1,29,65.93h-4.8A12.14,12.14,0,0,1,12.12,78.07ZM2.21,55.64a.26.26,0,0,0-.23.23V65.94a10.14,10.14,0,0,0,20.28,0h0v-2H29a3.09,3.09,0,0,0,3.1-3.07V51.92l-.46-.28v9.23a2.62,2.62,0,0,1-2.63,2.61H14.8a.23.23,0,0,0,0,.46h7v2a9.69,9.69,0,1,1-19.37.62c0-.2,0-.41,0-.62V56.1H23.34a.22.22,0,0,0,.23-.21V46.76l-.45-.27v9.15Z" transform="translate(0 -0.05)" style="fill:#414040"/></g></svg>