<svg id="Capa_1" data-name="Capa 1" xmlns="http://www.w3.org/2000/svg" viewBox="0 0 75.29 75.29"><title>IconoEstadoDeCuenta</title><path d="M74.22,24.5a4.58,4.58,0,0,0-2-2.91l-.72-.47a5.94,5.94,0,0,0,.06-3.29,7.15,7.15,0,0,0-3-4.16c-3-2-7.35-1.33-9.2,1.47L48.93,30.9a1.15,1.15,0,0,0,.34,1.59L40.42,45.88h0a.92.92,0,0,0-.09.23,1.18,1.18,0,0,0-.07.2h0L38.37,57.44a1.16,1.16,0,0,0,.5,1.15,1.18,1.18,0,0,0,.63.18,1,1,0,0,0,.62-.18l9.51-6.07h0a.8.8,0,0,0,.17-.15,1.21,1.21,0,0,0,.16-.16h0l8.85-13.38h0a1.09,1.09,0,0,0,.63.19h.23a1.16,1.16,0,0,0,.73-.49l10.09-15.3.48.32a2.29,2.29,0,0,1,.67,3.17h0l-5.88,8.89a2.29,2.29,0,1,0,1.94,1.27L73.56,28A4.6,4.6,0,0,0,74.22,24.5ZM41.37,53.75l.89-5.32L47,51.54l-4.6,2.9ZM48.74,50,43,46.18l8.2-12.43L57,37.55ZM69,21.45,59.18,36.27h0l-7.65-5.06L61.32,16.4c1.17-1.79,4-2.17,6-.82a5,5,0,0,1,2.06,2.82,3.73,3.73,0,0,1-.47,3.05Z" transform="translate(-0.01 0)" style="fill:#414040"/><path d="M39.51,59.76a2,2,0,0,1-1.18-.36,2.14,2.14,0,0,1-.93-2.12l1.85-11v-.35l.15-.14a1.46,1.46,0,0,1,.2-.44l.15-.21L48,32.61a2.12,2.12,0,0,1,.07-2.21L58.54,14.63A6.94,6.94,0,0,1,63,11.72a8.19,8.19,0,0,1,9.52,5.9,7.21,7.21,0,0,1,.11,3.1l.14.09a5.5,5.5,0,0,1,2.39,3.53h0a5.53,5.53,0,0,1-.81,4.19L68.78,37a3.19,3.19,0,0,1-.39,2.67,3.28,3.28,0,0,1-4.55.92,3.17,3.17,0,0,1-1.4-2.07,3.34,3.34,0,0,1,0-1.26l-1.19,1.8a2.19,2.19,0,0,1-1.34.92h-.12a2.44,2.44,0,0,1-.54,0l-8.5,12.85a1,1,0,0,1-.2.21l-.07.07-.15.14-.14.11-9.51,6.07A2.2,2.2,0,0,1,39.51,59.76Zm-.08-2h.17l9.49-6.08.07-.06h0l9.36-14.16.93.59h0a.18.18,0,0,0,.1-.07L70.19,21.86l1.3.88a3.26,3.26,0,0,1,.94,4.53l-6.19,9.37h-.56a1.27,1.27,0,0,0-1.16.55,1.3,1.3,0,0,0,2.18,1.43,1.34,1.34,0,0,0,0-1.29l-.24-.5,6.19-9.35a3.59,3.59,0,0,0-1-5h0l-1.28-.94.2-.7a5,5,0,0,0,.05-2.76,6.18,6.18,0,0,0-7.21-4.46,5,5,0,0,0-3.23,2.06L49.74,31.45a.17.17,0,0,0,.06.22l.83.55L41.27,46.38v.36l-.07.07L39.37,57.6a.17.17,0,0,0,.07.16ZM70.75,24.63l-6.94,10.5a3.58,3.58,0,0,1,1.41-.51l5.6-8.47a1.26,1.26,0,0,0,.18-1,1.36,1.36,0,0,0-.25-.53Zm-28.39,31-2.12-1.4,1.25-7.45,7.24,4.79Zm.58-5.52-.57,3.13,2.69-1.71Zm6,1.25-7.38-4.89,9.28-14.08,7.41,4.89ZM44.37,45.9l4.08,2.7,7.12-10.77-4.09-2.7Zm15-8.26-9.3-6.15L60.41,15.85a4.61,4.61,0,0,1,3-1.95,5.94,5.94,0,0,1,6.89,4.25A4.69,4.69,0,0,1,69.71,22h0Zm-6.56-6.71,6,4,9.24-14a2.77,2.77,0,0,0,.32-2.26,3.94,3.94,0,0,0-4.57-2.81A2.66,2.66,0,0,0,62.06,17Z" transform="translate(-0.01 0)" style="fill:#414040"/><path d="M16.63,29.51l25,.33a1.15,1.15,0,0,0,.21-2.29.74.74,0,0,0-.21,0l-24.95-.33a1.15,1.15,0,0,0,0,2.29Z" transform="translate(-0.01 0)" style="fill:#414040"/><path d="M41.6,30.83h0l-25-.33a2.18,2.18,0,0,1-1.5-.64,2.1,2.1,0,0,1-.61-1.52,2.19,2.19,0,0,1,.64-1.51,2.21,2.21,0,0,1,1.53-.6l24.95.33a2.14,2.14,0,0,1,1.46,3.67A2.11,2.11,0,0,1,41.6,30.83Zm-25-2.62a.17.17,0,0,0-.16.15.16.16,0,0,0,0,.11.12.12,0,0,0,.1.05h0l25,.33a.15.15,0,0,0,.15-.15.17.17,0,0,0-.15-.16l-25-.33Z" transform="translate(-0.01 0)" style="fill:#414040"/><path d="M41.49,36.72l-25-.34a1.15,1.15,0,1,0-.21,2.29h.21l25,.34a1.15,1.15,0,0,0,0-2.29Z" transform="translate(-0.01 0)" style="fill:#414040"/><path d="M41.48,40h0L16.53,39.7A2.1,2.1,0,0,1,15,39.06a2.15,2.15,0,0,1,.05-3,2.12,2.12,0,0,1,1.51-.6l25,.34a2.1,2.1,0,0,1,1.51.64A2.14,2.14,0,0,1,41.51,40ZM16.53,37.41a.16.16,0,0,0-.16.16.17.17,0,0,0,.15.15l25,.34h0a.16.16,0,0,0,0-.31h0l-25-.34Z" transform="translate(-0.01 0)" style="fill:#414040"/><path d="M16.75,20.31l11.46.15a1.15,1.15,0,0,0,.21-2.29.74.74,0,0,0-.21,0L16.78,18a1.14,1.14,0,0,0-1.16,1.12h0A1.16,1.16,0,0,0,16.75,20.31Z" transform="translate(-0.01 0)" style="fill:#414040"/><path d="M28.23,21.45h0L16.77,21.3a2.13,2.13,0,0,1-2.11-2.15v0a2.11,2.11,0,0,1,.65-1.5,2,2,0,0,1,1.52-.6l11.45.15a2.18,2.18,0,0,1,1.5.64,2.1,2.1,0,0,1,.61,1.52,2.15,2.15,0,0,1-.65,1.51A2.12,2.12,0,0,1,28.23,21.45ZM16.77,19a.19.19,0,0,0-.16.15.16.16,0,0,0,.16.16h0l11.45.15h0a.17.17,0,0,0,.16-.15.18.18,0,0,0-.15-.16Z" transform="translate(-0.01 0)" style="fill:#414040"/><path d="M15.26,46.68a1.15,1.15,0,0,0,1.11,1.16l20,.27.35-1.93v-.36l-20.35-.27A1.15,1.15,0,0,0,15.26,46.68Z" transform="translate(-0.01 0)" style="fill:#414040"/><path d="M37.24,49.11l-20.87-.28a2.15,2.15,0,0,1-2.1-2.17h0a2.14,2.14,0,0,1,2.13-2.1h0l21.37.28-.06,1.51Zm-21-2.42a.21.21,0,0,0,0,.11.16.16,0,0,0,.11.05l19.19.25v-.31l-19.17-.25h0a.14.14,0,0,0-.15.13v0Z" transform="translate(-0.01 0)" style="fill:#414040"/><circle cx="11.03" cy="19.13" r="2.29" style="fill:#414040"/><path d="M11,22.4h0a3.28,3.28,0,1,1,3.35-3.26A3.27,3.27,0,0,1,11,22.4Zm0-4.58a1.29,1.29,0,0,0-.91.37,1.27,1.27,0,0,0-.39.92A1.3,1.3,0,0,0,11,20.42a1.21,1.21,0,0,0,.93-.36,1.27,1.27,0,0,0,.39-.92,1.21,1.21,0,0,0-.37-.92,1.32,1.32,0,0,0-.91-.4h0Z" transform="translate(-0.01 0)" style="fill:#414040"/><circle cx="10.91" cy="28.29" r="2.29" style="fill:#414040"/><path d="M10.92,31.57h0a3.25,3.25,0,0,1-2.31-1,3.3,3.3,0,0,1-.93-2.34,3.23,3.23,0,0,1,1-2.3A3.37,3.37,0,0,1,11,25a3.28,3.28,0,0,1,0,6.56Zm0-4.58a1.34,1.34,0,0,0-.91.36,1.27,1.27,0,0,0-.39.92,1.24,1.24,0,0,0,.37.93,1.3,1.3,0,0,0,1.84,0h0a1.26,1.26,0,0,0,.39-.91,1.33,1.33,0,0,0-.37-.93,1.26,1.26,0,0,0-.91-.39h0Z" transform="translate(-0.01 0)" style="fill:#414040"/><circle cx="10.79" cy="37.46" r="2.29" style="fill:#414040"/><path d="M10.8,40.73h-.05a3.23,3.23,0,0,1-2.3-1,3.18,3.18,0,0,1-.93-2.33,3.25,3.25,0,0,1,1-2.31,3.28,3.28,0,0,1,4.58,4.7A3.2,3.2,0,0,1,10.8,40.73Zm0-4.58a1.32,1.32,0,0,0-1.3,1.32,1.29,1.29,0,0,0,.36.89,1.33,1.33,0,0,0,1.85,0,1.39,1.39,0,0,0,.39-.92,1.33,1.33,0,0,0-.37-.93,1.37,1.37,0,0,0-.92-.39h0Z" transform="translate(-0.01 0)" style="fill:#414040"/><circle cx="10.67" cy="46.62" r="2.29" style="fill:#414040"/><path d="M10.68,49.9h0a3.28,3.28,0,0,1-3.24-3.32h0a3.33,3.33,0,0,1,1-2.3,3.39,3.39,0,0,1,2.34-.93A3.28,3.28,0,0,1,14,46.66h0a3.27,3.27,0,0,1-3.28,3.24Zm0-4.58a1.28,1.28,0,0,0-.91,2.2h0a1.3,1.3,0,0,0,1.84,0h0a1.28,1.28,0,0,0,0-1.82l0,0a1.27,1.27,0,0,0-.92-.39h0Z" transform="translate(-0.01 0)" style="fill:#414040"/><path d="M49.11,56.94V68.57A3.43,3.43,0,0,1,45.7,72H6.7a3.43,3.43,0,0,1-3.41-3.44V6.72A3.43,3.43,0,0,1,6.7,3.28H32V14.73a5.71,5.71,0,0,0,5.7,5.73H49.12v4l2.25-3.52V19.32a1.18,1.18,0,0,0-.33-.81L34,1.32A1.18,1.18,0,0,0,33.15,1H6.69A5.71,5.71,0,0,0,1,6.72V68.57a5.71,5.71,0,0,0,5.7,5.73h39a5.71,5.71,0,0,0,5.7-5.73V55.49h-.07Zm-14.79-52L47.5,18.2H37.73a3.43,3.43,0,0,1-3.41-3.44Z" transform="translate(-0.01 0)" style="fill:#414040"/><path d="M45.7,75.29H6.7A6.71,6.71,0,0,1,0,68.58V6.72A6.71,6.71,0,0,1,6.7,0H33.19A2.13,2.13,0,0,1,34.7.62L51.78,17.81a2.19,2.19,0,0,1,.62,1.51v1.92l-4.27,6.47V21.45H37.73A6.71,6.71,0,0,1,31,14.73V4.27H6.69A2.43,2.43,0,0,0,4.27,6.71h0V68.58A2.43,2.43,0,0,0,6.69,71h39a2.44,2.44,0,0,0,2.42-2.44V56.4l2.81-1.79L52.31,54l.07,1.51V68.58A6.72,6.72,0,0,1,45.7,75.29ZM6.7,2A4.72,4.72,0,0,0,2,6.71H2V68.58A4.72,4.72,0,0,0,6.7,73.31h39a4.72,4.72,0,0,0,4.71-4.73h0V57.28l-.31.2v11.1A4.42,4.42,0,0,1,45.7,73H6.7a4.4,4.4,0,0,1-4.4-4.42h0V6.72A4.4,4.4,0,0,1,6.69,2.29H33V14.73a4.72,4.72,0,0,0,4.7,4.74H50.11v1.65l.31-.47V19.32a.21.21,0,0,0-.05-.13L33.29,2a.21.21,0,0,0-.11,0ZM49.89,19.16H37.73a4.4,4.4,0,0,1-4.4-4.42h0V2.51ZM35.32,7.31v7.42a2.44,2.44,0,0,0,2.42,2.45h7.39Z" transform="translate(-0.01 0)" style="fill:#414040"/></svg>