<svg id="Capa_1" data-name="Capa 1" xmlns="http://www.w3.org/2000/svg" viewBox="0 0 68.28 77.52"><title>IconoAreasComunes</title><path d="M2.59,76.07c5.87,0,10.47-2.51,14.3-7.88,3.56,5.44,8.1,7.88,14.45,7.88,5.87,0,10.47-2.51,14.31-7.88,3.55,5.44,8.1,7.88,14.45,7.88a1.6,1.6,0,0,0,0-3.19c-5.94,0-9.82-2.53-13-8.46a1.6,1.6,0,0,0-1.37-.85,1.47,1.47,0,0,0-1.41.79c-3.58,6-7.47,8.52-13,8.52-5.93,0-9.8-2.53-13-8.46A1.65,1.65,0,0,0,17,63.57a1.59,1.59,0,0,0-1.41.79c-3.59,6-7.47,8.52-13,8.52a1.6,1.6,0,1,0-.25,3.19,1,1,0,0,0,.25,0Z" transform="translate(0 0.37)" style="fill:#414040"/><path d="M60.1,77.07c-6.24,0-10.88-2.3-14.48-7.19-3.84,4.83-8.52,7.19-14.28,7.19-6.24,0-10.87-2.3-14.48-7.19C13,74.71,8.34,77.07,2.59,77.07a2.59,2.59,0,0,1,0-5.18c5.21,0,8.73-2.33,12.16-8a2.58,2.58,0,0,1,4.5.1c3,5.64,6.5,7.94,12.09,7.94,5.21,0,8.74-2.33,12.16-8a2.45,2.45,0,0,1,2.27-1.27A2.61,2.61,0,0,1,48,64C51,69.67,54.5,72,60.1,72a2.59,2.59,0,0,1,0,5.18ZM45.69,66.43l.79,1.22c3.36,5.14,7.56,7.43,13.62,7.43a.61.61,0,0,0,0-1.21c-6.27,0-10.54-2.77-13.85-9a.63.63,0,0,0-.53-.33.5.5,0,0,0-.51.3c-3.8,6.32-7.94,9-13.87,9-6.26,0-10.53-2.77-13.83-9a.66.66,0,0,0-.53-.33.61.61,0,0,0-.53.31c-3.79,6.31-7.93,9-13.86,9a.61.61,0,0,0-.68.53.6.6,0,0,0,.52.68.43.43,0,0,0,.16,0c5.57,0,9.86-2.37,13.5-7.47l.84-1.18.79,1.22C21.08,72.74,25.28,75,31.34,75c5.57,0,9.86-2.37,13.5-7.47Z" transform="translate(0 0.37)" style="fill:#414040"/><path d="M14.57,31.35H48.12a1.6,1.6,0,1,0,0-3.2H14.57a1.6,1.6,0,1,0,0,3.2Z" transform="translate(0 0.37)" style="fill:#414040"/><path d="M48.12,32.34H14.57a2.59,2.59,0,0,1,0-5.18H48.12a2.59,2.59,0,1,1,0,5.18Zm-33.55-3.2a.61.61,0,0,0,0,1.22H48.12a.62.62,0,0,0,.6-.61.6.6,0,0,0-.59-.61H14.57Z" transform="translate(0 0.37)" style="fill:#414040"/><path d="M48.12,47.32H14.57a1.6,1.6,0,1,0,0,3.2H48.12a1.6,1.6,0,1,0,0-3.2Z" transform="translate(0 0.37)" style="fill:#414040"/><path d="M48.12,51.51H14.57a2.59,2.59,0,0,1,0-5.18H48.12a2.59,2.59,0,0,1,0,5.18Zm-33.55-3.2a.61.61,0,0,0-.61.61.63.63,0,0,0,.61.61H48.12a.62.62,0,0,0,.6-.61.6.6,0,0,0-.59-.61H14.57Z" transform="translate(0 0.37)" style="fill:#414040"/><path d="M56.91,5a7.2,7.2,0,0,1,7.19,7.19,1.6,1.6,0,0,0,3.19,0,10.38,10.38,0,0,0-20.76,0V58.93a6.37,6.37,0,0,1,3.19,1.38V12.18A7.2,7.2,0,0,1,56.91,5Z" transform="translate(0 0.37)" style="fill:#414040"/><path d="M50.71,62.35,49.1,61a5.46,5.46,0,0,0-2.71-1.17l-.85-.11V12.18a11.37,11.37,0,1,1,22.74,0v0a2.59,2.59,0,0,1-5.17,0,6.2,6.2,0,0,0-12.4,0Zm-3.19-4.27a8.66,8.66,0,0,1,1.21.42V12.18a8.18,8.18,0,0,1,16.36,0,.61.61,0,0,0,1.21,0,9.39,9.39,0,0,0-18.78,0h0Z" transform="translate(0 0.37)" style="fill:#414040"/><path d="M16.18,11.38a7.19,7.19,0,0,1,14.37-.54,4.86,4.86,0,0,1,0,.54,1.6,1.6,0,0,0,3.2,0A10.39,10.39,0,1,0,13,10.74c0,.21,0,.43,0,.64V60.25a6.2,6.2,0,0,1,3.2-1.36Z" transform="translate(0 0.37)" style="fill:#414040"/><path d="M12,62.35v-51a11.38,11.38,0,0,1,22.75-.67c0,.22,0,.45,0,.67a2.59,2.59,0,0,1-5.18,0,6.2,6.2,0,0,0-12.39-.5,4.17,4.17,0,0,0,0,.5V59.74l-.87.1A5.23,5.23,0,0,0,13.61,61ZM23.36,2A9.41,9.41,0,0,0,14,11.38v47.1a7.29,7.29,0,0,1,1.22-.41V11.38a8.18,8.18,0,0,1,16.35-.57,5.42,5.42,0,0,1,0,.57.61.61,0,1,0,1.22,0A9.41,9.41,0,0,0,23.36,2Z" transform="translate(0 0.37)" style="fill:#414040"/></svg>