<svg id="Capa_1" data-name="Capa 1" xmlns="http://www.w3.org/2000/svg" viewBox="0 0 78.05 74.87"><title>IconoPromociones</title><path d="M77.9,28.29a3,3,0,0,0-2.42-2.07L52.15,22.83,41.72,1.55A3.13,3.13,0,0,0,37.43.45a3.22,3.22,0,0,0-1.1,1.1L25.9,22.83,2.57,26.23A3.06,3.06,0,0,0,.9,31.41L17.78,48l-4,23.38a3,3,0,0,0,1.2,3,2.89,2.89,0,0,0,1.77.58,3,3,0,0,0,1.38-.34L39,63.54l20.87,11a3.07,3.07,0,0,0,1.39.34A2.92,2.92,0,0,0,63,74.3a3,3,0,0,0,1.2-3L60.24,48,77.12,31.41A3,3,0,0,0,77.9,28.29ZM57.29,44.93a4.2,4.2,0,0,0-1.21,3.74l3.57,20.92L41,59.74a4.18,4.18,0,0,0-4,0L18.4,69.59,22,48.67a4.24,4.24,0,0,0-1.23-3.74L5.65,30.07,26.53,27a4.16,4.16,0,0,0,3.19-2.33l9.33-19,9.3,19A4.21,4.21,0,0,0,51.56,27l20.89,3.05Z" transform="translate(0 -0.01)" style="fill:#414040"/></svg>