<svg id="Capa_1" data-name="Capa 1" xmlns="http://www.w3.org/2000/svg" viewBox="0 0 83.61 76.76"><title>IconoVisitaFrecuente</title><path d="M56.19,51.54l-1.71-.22A25.53,25.53,0,0,1,46.6,49l-1.55-.74,1.48-3.11,1.55.75a22.29,22.29,0,0,0,6.83,2l1.71.21Z" transform="translate(0 0.07)" style="fill:#414040"/><path d="M56.51,51.92l-2.07-.26a26,26,0,0,1-8-2.35l-1.89-.9,1.81-3.77,1.89.9a21.31,21.31,0,0,0,6.71,2L57,47.8Zm-11-3.86,1.22.58a24.84,24.84,0,0,0,7.77,2.28l1.34.17.33-2.67-1.33-.17a22.45,22.45,0,0,1-7-2l-1.21-.58Z" transform="translate(0 0.07)" style="fill:#414040"/><path d="M57.67,51.54c-.52,0-1,0-1.56,0a1.72,1.72,0,0,1,0-3.44h.17A22.35,22.35,0,0,0,77.82,35,1.72,1.72,0,1,1,81,36.42,25.62,25.62,0,0,1,57.67,51.54Z" transform="translate(0 0.07)" style="fill:#414040"/><path d="M57.67,51.86H56.09a2.1,2.1,0,0,1-2-2.19v0a2.1,2.1,0,0,1,.71-1.44,2,2,0,0,1,1.51-.52A21.75,21.75,0,0,0,77.43,34.93a2.1,2.1,0,0,1,2.78-1,2.14,2.14,0,0,1,1.09,1.16,2.07,2.07,0,0,1,0,1.6,25.54,25.54,0,0,1-6.57,8.84A25.88,25.88,0,0,1,57.67,51.86Zm-1.46-3.48a1.35,1.35,0,0,0-1.34,1.27,1.26,1.26,0,0,0,.33,1,1.34,1.34,0,0,0,.93.45A25.18,25.18,0,0,0,80.67,36.3a1.33,1.33,0,0,0,0-1,1.35,1.35,0,0,0-2.49-.07A22.54,22.54,0,0,1,56.33,48.41Z" transform="translate(0 0.07)" style="fill:#414040"/><path d="M81.08,32.54a1.7,1.7,0,0,1-.67-.13,1.74,1.74,0,0,1-1-2,1.78,1.78,0,0,1,3.5.14,1.78,1.78,0,0,1-.06.65,1.71,1.71,0,0,1-1.51,1.33Z" transform="translate(0 0.07)" style="fill:#414040"/><path d="M81.08,32.87a2.25,2.25,0,0,1-.81-.16,2.18,2.18,0,1,1,1.74-4,2.16,2.16,0,0,1-.65,4.1Zm.09-3.55h-.11a1.36,1.36,0,0,0-1.31,1.1A1.39,1.39,0,0,0,80.56,32a1.44,1.44,0,0,0,.71.09,1.37,1.37,0,0,0,1.2-1,1.38,1.38,0,0,0-.76-1.64A1.44,1.44,0,0,0,81.17,29.32Z" transform="translate(0 0.07)" style="fill:#414040"/><path d="M81.5,27.44a1.72,1.72,0,0,1-1.72-1.71A22.12,22.12,0,0,0,35.6,24.25,1.72,1.72,0,0,1,32.17,24v0A25.56,25.56,0,0,1,83.22,25.7a1.72,1.72,0,0,1-1.7,1.74h0Z" transform="translate(0 0.07)" style="fill:#414040"/><path d="M81.52,27.81h0a2.11,2.11,0,0,1-2.09-2.07A21.75,21.75,0,0,0,36,24.28,2.1,2.1,0,1,1,31.82,24,25.93,25.93,0,0,1,83.61,25.7a2.1,2.1,0,0,1-2.07,2.11ZM57.67,3.44c.51,0,1,0,1.53.05a22.48,22.48,0,0,1,21,22.24,1.36,1.36,0,0,0,1.35,1.34h0a1.35,1.35,0,0,0,1.33-1.36A25.19,25.19,0,0,0,32.57,24a1.35,1.35,0,0,0,2.68.32.49.49,0,0,0,0-.12A22.51,22.51,0,0,1,57.67,3.44Z" transform="translate(0 0.07)" style="fill:#414040"/><path d="M34.34,36.54l-.6-1.61a25.33,25.33,0,0,1-1.64-9.24V24h3.44v1.72a21.88,21.88,0,0,0,1.42,8l.6,1.61Z" transform="translate(0 0.07)" style="fill:#414040"/><path d="M34.12,37l-.73-2a25.92,25.92,0,0,1-1.66-9.38V23.56h4.18v2.09a22,22,0,0,0,1.39,7.87l.74,2ZM32.49,24.35V25.7a25.29,25.29,0,0,0,1.61,9.11l.48,1.26,2.52-1-.47-1.26a22.34,22.34,0,0,1-1.44-8.13V24.38Z" transform="translate(0 0.07)" style="fill:#414040"/><path d="M13,76.32a12.43,12.43,0,0,1-8.47-3.65C-3,65.78,1.78,59.1,3.35,56.9l.34-.48c1.22-1.84,21.8-19.31,28.08-24.62l1.31-1.12,2.23,2.63L34,34.42C24,42.85,7.8,56.77,6.54,58.35l-.39.56c-1.61,2.23-4.6,6.4.65,11.22,4.75,4.35,8.69,2.48,10.05,1.59L17.47,66l1.73-1.53,5,.05.41-5.08,1.82-1.58,5.72.37L33,52.7l1.86-1.45,5.34.51L47,46.19l2.17,2.66-7.36,6-1.26.38-4.41-.42-.82,5.46-1.81,1.46-5.61-.36-.41,5L25.76,68l-5.06-.06-.53,4.93-.58,1.11A10.4,10.4,0,0,1,13,76.32Z" transform="translate(0 0.07)" style="fill:#414040"/><path d="M13,76.69a12.83,12.83,0,0,1-8.72-3.75c-7.75-7.11-2.8-14-1.18-16.26l.33-.46C4.6,54.38,23.47,38.33,31.53,31.51l1.6-1.35,2.7,3.19-1.6,1.36C24.3,43.11,8.07,57,6.83,58.58c-.09.14-.23.33-.38.54C4.8,61.42,2,65.26,7.06,69.86c4.35,4,8,2.57,9.44,1.65l.62-5.7,1.94-1.73,4.81.06.4-4.89,2.06-1.78,5.52.35.82-5.28,2.1-1.64,5.33.52,7-5.71L49.75,49,42,55.27l-1.33.4-4.14-.4-.78,5.25-2,1.65-5.39-.34-.46,4.71-1.95,1.78-4.86-.06L20.52,73l-.66,1.22A11,11,0,0,1,13,76.69ZM33,31.21l-1,.87C19.12,43,5,55.19,4,56.63l-.31.43c-1.57,2.19-6.22,8.67,1,15.33A12.12,12.12,0,0,0,13,76a10.15,10.15,0,0,0,6.36-2.24l.52-1,.56-5.19,5.25.06,1.52-1.38L27.58,61l5.83.37L35,60.07l.85-5.67,4.7.46,1.13-.32,7-5.74L47,46.71l-6.65,5.43L35,51.63l-1.63,1.28-.85,5.7-5.91-.38L25,59.61l-.43,5.28-5.22-.06-1.52,1.34-.62,5.77-.15.09c-1.53,1-5.61,2.86-10.5-1.63-5.49-5-2.26-9.55-.7-11.71.15-.21.28-.39.38-.55,1.45-1.82,20.36-17.94,27.52-24l1-.87Z" transform="translate(0 0.07)" style="fill:#414040"/><path d="M57.59,43.11A24.25,24.25,0,0,1,46.2,40.17l-1.48-.87,1.75-3,1.48.87c.08,0,8.58,4.92,17.07.76l1.54-.76,1.51,3.09L66.53,41A20.24,20.24,0,0,1,57.59,43.11Z" transform="translate(0 0.07)" style="fill:#414040"/><path d="M57.59,43.48a24.8,24.8,0,0,1-11.58-3l-1.8-1.06,2.13-3.6,1.8,1.06c.08,0,8.42,4.81,16.71.74l1.88-.92,1.84,3.76-1.88.92A20.51,20.51,0,0,1,57.59,43.48ZM45.23,39.17l1.16.68a24,24,0,0,0,11.2,2.89,19.77,19.77,0,0,0,8.78-2l1.21-.59-1.19-2.42-1.21.59c-8.72,4.27-17.33-.72-17.42-.77l-1.16-.68Z" transform="translate(0 0.07)" style="fill:#414040"/><path d="M70.56,38.34l-2.37-2.49,1.24-1.19a1.91,1.91,0,0,1,.69-.43l.71-.75,2.48,2.38L72.12,37.1a1.8,1.8,0,0,1-.82.53Z" transform="translate(0 0.07)" style="fill:#414040"/><path d="M70.55,38.87l-2.89-3,1.52-1.44a2.19,2.19,0,0,1,.72-.49l.92-.95,3,2.89-1.45,1.51a2.34,2.34,0,0,1-.89.6Zm-1.84-3,1.86,2,.62-.54a1.49,1.49,0,0,0,.67-.43l.93-1-2-1.86-.6.56a2,2,0,0,0-.55.36Z" transform="translate(0 0.07)" style="fill:#414040"/><path d="M64.21,29.54a9,9,0,1,1,5.9-2.22A9,9,0,0,1,64.21,29.54Zm0-14.49a5.52,5.52,0,1,0,4.16,1.89,5.52,5.52,0,0,0-4.16-1.89Z" transform="translate(0 0.07)" style="fill:#414040"/><path d="M64.21,29.87a9.34,9.34,0,1,1,9-9A9.35,9.35,0,0,1,64.21,29.87Zm0-17.93a8.59,8.59,0,1,0,6.47,2.94A8.6,8.6,0,0,0,64.21,11.94Zm0,14.49A5.89,5.89,0,1,1,68.09,25a5.91,5.91,0,0,1-3.88,1.46Zm0-11a5.15,5.15,0,1,0,5.14,5.16,5.09,5.09,0,0,0-1.26-3.39A5.16,5.16,0,0,0,64.21,15.38Z" transform="translate(0 0.07)" style="fill:#414040"/><rect x="5.98" y="59.91" width="11.77" height="3.44" transform="translate(-37.63 23.11) rotate(-41.16)" style="fill:#414040"/><path d="M8.52,67.35,5.76,64.2,15.19,56l2.75,3.15ZM6.81,64.27l1.78,2L16.89,59l-1.77-2Z" transform="translate(0 0.07)" style="fill:#414040"/><rect x="16.61" y="44.97" width="24.69" height="3.44" transform="translate(-23.57 30.67) rotate(-41.16)" style="fill:#414040"/><path d="M20.75,56.65,18,53.54,37.15,36.8,39.9,40Zm-1.7-3.08,1.77,2,18-15.76-1.77-2Z" transform="translate(0 0.07)" style="fill:#414040"/></svg>