<svg id="Capa_1" data-name="Capa 1" xmlns="http://www.w3.org/2000/svg" viewBox="0 0 99.02 83.48"><title>IconoEmergencia</title><path d="M64.7,64.05H61.51V50.93A15.82,15.82,0,0,0,45.75,35.14H44.53A15.88,15.88,0,0,0,28.63,51v13L25.45,64V50.93a19.07,19.07,0,0,1,19.08-19h1.22a19,19,0,0,1,19,19Z" transform="translate(-0.06 -0.06)" style="fill:#414040"/><path d="M65.17,64.55H61V50.93A15.29,15.29,0,0,0,45.73,35.6H44.51A15.38,15.38,0,0,0,29.17,50.93l0,13.48L25,64.5V51A19.56,19.56,0,0,1,44.62,31.46h1.22A19.5,19.5,0,0,1,65.17,50.93Zm-3.19-1h2.19V50.93A18.5,18.5,0,0,0,45.72,32.41H44.5A18.58,18.58,0,0,0,25.91,50.93V63.49l2.2-.05V51A16.37,16.37,0,0,1,44.5,34.65h1.22A16.3,16.3,0,0,1,62,51Z" transform="translate(-0.06 -0.06)" style="fill:#414040"/><path d="M22.33,83a3.12,3.12,0,0,1-3.15-1.66,10.78,10.78,0,0,1-.42-4.07A10.81,10.81,0,0,1,29.55,66.5H60.71A10.81,10.81,0,0,1,71.5,77.3v1.31c0,1.85,0,2.87-.76,3.68a3,3,0,0,1-2.23.74H67.45c-.56,0-1.25,0-2.09,0H25.63c-.82,0-1.5,0-2.1,0a9.22,9.22,0,0,1-1.19,0ZM22,79.83H23.4c.6,0,1.34-.06,2.23-.06H65.37c.91,0,1.64,0,2.23.06h.73V77.3a7.61,7.61,0,0,0-7.6-7.61H29.55A7.61,7.61,0,0,0,22,77.3,21.4,21.4,0,0,0,22,79.83Z" transform="translate(-0.06 -0.06)" style="fill:#414040"/><path d="M68.52,83.52H67.44c-.55,0-1.24,0-2.07,0H25.63c-.8,0-1.46,0-2,0H22.38a3.57,3.57,0,0,1-3.6-2,11,11,0,0,1-.46-4.27A11.29,11.29,0,0,1,29.6,66H60.76A11.31,11.31,0,0,1,72.05,77.3v1.23c0,2,0,3.15-.91,4.1A3.45,3.45,0,0,1,68.52,83.52ZM25.63,82.44H65.37c.85,0,1.55,0,2.11.06h1a2.56,2.56,0,0,0,1.88-.59c.63-.64.64-1.43.62-3.33V77.27A10.31,10.31,0,0,0,60.68,67H29.55a10.32,10.32,0,0,0-10.29,10.3,10.33,10.33,0,0,0,.38,3.87,2.62,2.62,0,0,0,2.69,1.36h1.18c.66,0,1.31-.06,2.12-.06Zm43.18-2.1H67.57c-.6,0-1.31,0-2.2,0H25.63c-.86,0-1.58,0-2.17,0a13.62,13.62,0,0,1-1.45,0h-.4L21.55,80a20.71,20.71,0,0,1-.1-2.61,8.12,8.12,0,0,1,8.1-8.1H60.71a8.1,8.1,0,0,1,8.1,8.1h0v3ZM29.55,70.19a7.13,7.13,0,0,0-7.11,7.11v2h.87c.67,0,1.41,0,2.28,0H65.37c.9,0,1.63,0,2.22,0h.25v-2a7.13,7.13,0,0,0-7.11-7.11Z" transform="translate(-0.06 -0.06)" style="fill:#414040"/><path d="M57.49,55.75h-.12a1.59,1.59,0,0,1-1.47-1.7h0v-.95a12.12,12.12,0,0,0-3.49-8.6,1.59,1.59,0,0,1,2.24-2.27,15.37,15.37,0,0,1,4.52,10.86v1.19A1.61,1.61,0,0,1,57.49,55.75Z" transform="translate(-0.06 -0.06)" style="fill:#414040"/><path d="M57.49,56.24h-.16A2.09,2.09,0,0,1,55.4,54v-.92a11.62,11.62,0,0,0-3.35-8.25,2.08,2.08,0,0,1,1.46-3.57h0a2.08,2.08,0,0,1,1.47.61A15.92,15.92,0,0,1,59.57,53.1a10.12,10.12,0,0,1,0,1.23A2.1,2.1,0,0,1,57.49,56.24Zm-3.93-14a1.1,1.1,0,0,0-.78,1.88h0a12.63,12.63,0,0,1,3.64,9v1a1.11,1.11,0,0,0,.26.8,1.1,1.1,0,0,0,.75.38h.09a1.1,1.1,0,0,0,1.09-1V53.1a14.84,14.84,0,0,0-4.29-10.52,1,1,0,0,0-.76-.33Z" transform="translate(-0.06 -0.06)" style="fill:#414040"/><path d="M49.43,42.2a1.57,1.57,0,0,1-.68-.15,1.6,1.6,0,0,1,.4-3.14,2.63,2.63,0,0,1,1,.25,2.25,2.25,0,0,1,.36.24l.09.08.17.21a1.59,1.59,0,0,1,.29.92h0A1.6,1.6,0,0,1,50,42.13,1.52,1.52,0,0,1,49.43,42.2Z" transform="translate(-0.06 -0.06)" style="fill:#414040"/><path d="M49.43,42.7a2.1,2.1,0,0,1-.89-.2,2,2,0,0,1-1.48-2,2.1,2.1,0,0,1,2.09-2.09,3.07,3.07,0,0,1,1.19.3,2.13,2.13,0,0,1,.47.31l.11.1a3.11,3.11,0,0,1,.23.28,2.06,2.06,0,0,1,.38,1.2,2.1,2.1,0,0,1-1.46,2A2,2,0,0,1,49.43,42.7Zm-.28-3.29a1.1,1.1,0,0,0-.28,2.16,1.18,1.18,0,0,0,.9.09,1.1,1.1,0,0,0,.77-1,1.07,1.07,0,0,0-.2-.63l-.12-.15a1.34,1.34,0,0,0-.31-.22,2.16,2.16,0,0,0-.74-.25Z" transform="translate(-0.06 -0.06)" style="fill:#414040"/><path d="M71,68.22a1.57,1.57,0,0,1-1.59-1.56,6.52,6.52,0,0,1,2.2-5.22,7.88,7.88,0,0,1,4.19-1.73,9.7,9.7,0,0,1-1.73-4.21,10.7,10.7,0,0,1,2.62-9,23.14,23.14,0,0,1,6.76-4.66c-4.35-.39-9.07-1.66-12.1-5.22a15.24,15.24,0,0,1-3.47-9.81,17.39,17.39,0,0,1,.57-4.54,32.93,32.93,0,0,1-6,1.73c-4.64.84-8.57.16-11.36-1.95a14.43,14.43,0,0,1-5.27-8.17,15.93,15.93,0,0,1-5.76,6.75c-2.59,1.74-7.69,2.71-10.23,2.71a15.23,15.23,0,0,1-6.95-1.84c1.87,6.58,1.33,11.43-1.6,15C19.24,39,14.8,40.6,10.48,41.34c.41.19.77.37,1.06.54,3.77,2.12,7.85,4.92,8.6,11.25a10.51,10.51,0,0,1-2.73,8.18A13.47,13.47,0,0,1,22.72,63a1.59,1.59,0,1,1-1.58,2.77,10.47,10.47,0,0,0-8.86-.69,1.6,1.6,0,0,1-1.22-3c3.18-1.4,6.38-4.7,5.91-8.64-.52-4.39-3-6.56-7-8.85a41.14,41.14,0,0,0-8.18-3.07,1.59,1.59,0,0,1,.6-3.13h0c4.2.8,13.88-.85,16.41-4,2.88-3.54,2.62-9-.8-17.26a1.59,1.59,0,0,1,2.77-1.54,12.15,12.15,0,0,0,9,4.43h0c2.11,0,6.59-.93,8.46-2.18C42.61,15,44.5,10.5,44.45,3.09V2a1.59,1.59,0,0,1,3.18-.06V3.11a55.59,55.59,0,0,0,1,9A11.6,11.6,0,0,0,53,19.47c2.61,2,6.27,1.83,8.88,1.36,3.73-.67,7.75-2.31,8.79-3.55l.22-.31A1.59,1.59,0,0,1,73,16.56a1.61,1.61,0,0,1,.5,2.15c-.09.14-.18.28-.29.42-3.13,4.66-2.93,11.36.5,15.4,4.1,4.82,12.68,4.36,17.28,4.11h.4a1.59,1.59,0,0,1,.71,3.06c-1.2.5-2.3.93-3.36,1.35-4,1.55-6.8,2.67-9.88,5.71A7.56,7.56,0,0,0,77.16,55,6.65,6.65,0,0,0,81,60a1.59,1.59,0,0,1-1,3c-2.9-.51-5.17-.22-6.39.83a3.3,3.3,0,0,0-1.09,2.72A1.6,1.6,0,0,1,71,68.18Z" transform="translate(-0.06 -0.06)" style="fill:#414040"/><path d="M71,68.72a2.1,2.1,0,0,1-2.09-2,7,7,0,0,1,2.38-5.6A8,8,0,0,1,75,59.35a10.39,10.39,0,0,1-1.38-3.77,11.2,11.2,0,0,1,2.76-9.39,22.8,22.8,0,0,1,5.4-4C77,41.5,73.33,39.75,71,37A15.72,15.72,0,0,1,67.4,26.86a18,18,0,0,1,.36-3.74,33.74,33.74,0,0,1-5.21,1.42c-4.78.86-8.85.15-11.75-2.05a14.72,14.72,0,0,1-5.09-7.22,16.62,16.62,0,0,1-5.36,5.82c-2.68,1.79-7.91,2.79-10.51,2.8h0a15.25,15.25,0,0,1-6.16-1.42c1.55,6.16.9,10.89-2,14.43C20,39,16.49,40.69,12,41.64c3.82,2.18,7.89,5.07,8.66,11.52A10.79,10.79,0,0,1,18.36,61,14.1,14.1,0,0,1,23,62.67a2.07,2.07,0,0,1,.8,2.85,2.13,2.13,0,0,1-1.26,1,2.05,2.05,0,0,1-1.59-.2,10,10,0,0,0-8.44-.66,2.09,2.09,0,0,1-1.6-3.86c3-1.33,6.06-4.44,5.62-8.13-.5-4.18-2.85-6.27-6.75-8.48a39.94,39.94,0,0,0-8-3,2.09,2.09,0,1,1,.79-4.11c4,.76,13.55-.85,15.94-3.79,2.75-3.37,2.47-8.7-.87-16.75a2.09,2.09,0,0,1,3.63-2,11.63,11.63,0,0,0,8.62,4.22c2,0,6.44-.91,8.21-2.09,4.25-2.85,6-7.16,6-14.39V2.17A2.1,2.1,0,0,1,46.13.06a2,2,0,0,1,1.48.57,2.1,2.1,0,0,1,.65,1.45v1.2a54.88,54.88,0,0,0,1,8.86,11.09,11.09,0,0,0,4.13,7.07c2.47,1.87,6,1.72,8.49,1.26,3.93-.7,7.63-2.35,8.5-3.38l.2-.28a2.09,2.09,0,0,1,3.49,2.28,4.76,4.76,0,0,1-.31.47c-3,4.44-2.78,10.94.48,14.77C78.18,39,86.6,38.52,91.12,38.27h.4a2.09,2.09,0,0,1,.92,4c-1.2.51-2.3.94-3.37,1.36-3.89,1.53-6.71,2.64-9.71,5.6A7,7,0,0,0,77.79,55a6.18,6.18,0,0,0,3.56,4.68,2.09,2.09,0,0,1-1.29,3.93c-2.75-.49-4.87-.23-6,.71a2.86,2.86,0,0,0-.91,2.34,2.12,2.12,0,0,1-.58,1.49,2,2,0,0,1-1.47.64ZM69.17,21.49l-.25,1a16.82,16.82,0,0,0-.55,4.41,14.77,14.77,0,0,0,3.35,9.49c2.44,2.87,6.39,4.57,11.76,5l1.83.16-1.66.78A22.37,22.37,0,0,0,77,46.89a10.19,10.19,0,0,0-2.48,8.53,9.15,9.15,0,0,0,1.64,4l.49.68-.83.1a7.49,7.49,0,0,0-3.93,1.62,6,6,0,0,0-2,4.83A1.11,1.11,0,0,0,71,67.73h0a1.08,1.08,0,0,0,.78-.34,1.05,1.05,0,0,0,.31-.79,3.77,3.77,0,0,1,1.26-3.11c1.34-1.14,3.75-1.47,6.79-.93a1.1,1.1,0,0,0,.68-2.07,7.15,7.15,0,0,1-4.1-5.41,8.08,8.08,0,0,1,1.85-6.62c3.15-3.11,6-4.25,10-5.82,1.06-.42,2.15-.85,3.34-1.35a1.1,1.1,0,0,0-.48-2.11h-.4c-4.69.25-13.43.72-17.69-4.28-3.58-4.22-3.81-11.1-.53-16a3.51,3.51,0,0,0,.27-.4A1.1,1.1,0,0,0,72.81,17a1.13,1.13,0,0,0-1.5.28l-.21.31C69.93,19,65.85,20.67,62,21.37c-2.7.49-6.5.63-9.26-1.45a12,12,0,0,1-4.5-7.67,56.73,56.73,0,0,1-1-9V2.06a1.09,1.09,0,0,0-.34-.76A1,1,0,0,0,46.1,1,1.11,1.11,0,0,0,45,2.11v1.1c.06,7.62-1.87,12.17-6.43,15.23-2,1.35-6.59,2.25-8.74,2.26a12.76,12.76,0,0,1-9.45-4.63A1.09,1.09,0,0,0,19,15.75a1.1,1.1,0,0,0-.48,1.38c3.5,8.42,3.73,14.07.73,17.76-2.67,3.28-12.48,5-16.89,4.14a1.1,1.1,0,1,0-.62,2.11l.2,0a42.34,42.34,0,0,1,8.32,3.13c4.18,2.36,6.71,4.63,7.26,9.23.5,4.18-2.87,7.67-6.21,9.15a1.1,1.1,0,0,0,.84,2,11,11,0,0,1,9.29.72,1.09,1.09,0,0,0,.83.1,1.11,1.11,0,0,0,.67-.51,1.12,1.12,0,0,0,.1-.84,1.06,1.06,0,0,0-.51-.66,13.27,13.27,0,0,0-5.12-1.64l-.94-.1.62-.72a10.05,10.05,0,0,0,2.61-7.79c-.73-6.1-4.69-8.81-8.35-10.88-.28-.16-.63-.34-1-.53L8.9,41.17l1.54-.26c5-.85,8.79-2.55,10.51-4.66,2.82-3.47,3.32-8.25,1.52-14.59l-.32-1.12,1,.54a14.27,14.27,0,0,0,6.72,1.79c2.47,0,7.44-.95,10-2.63a15.56,15.56,0,0,0,5.59-6.54L46,12.42l.35,1.36a13.9,13.9,0,0,0,5.09,7.89c2.68,2,6.47,2.68,11,1.86a31.84,31.84,0,0,0,5.9-1.7Z" transform="translate(-0.06 -0.06)" style="fill:#414040"/><path d="M33.65,14.9A1.59,1.59,0,0,1,32.23,14l-2.94-5.8a1.59,1.59,0,1,1,2.84-1.44l2.94,5.8a1.6,1.6,0,0,1-.7,2.15A1.62,1.62,0,0,1,33.65,14.9Z" transform="translate(-0.06 -0.06)" style="fill:#414040"/><path d="M33.65,15.39a2.07,2.07,0,0,1-1.86-1.14L28.84,8.44a2.09,2.09,0,0,1,3.73-1.89l3,5.81A2.09,2.09,0,0,1,35.69,14a2.16,2.16,0,0,1-1,1.22A2.08,2.08,0,0,1,33.65,15.39Zm-2.94-9a1.08,1.08,0,0,0-.5.12A1.1,1.1,0,0,0,29.73,8h0l2.94,5.8a1.13,1.13,0,0,0,1.48.48,1.1,1.1,0,0,0,.55-.63,1.07,1.07,0,0,0-.07-.84L31.69,7a1.09,1.09,0,0,0-.64-.55,1.32,1.32,0,0,0-.34,0Z" transform="translate(-0.06 -0.06)" style="fill:#414040"/><path d="M14.05,31a1.6,1.6,0,0,1-1-.39l-5-4.23A1.6,1.6,0,0,1,10.18,24l4.94,4.23a1.6,1.6,0,0,1,.16,2.26,1.57,1.57,0,0,1-1.16.55Z" transform="translate(-0.06 -0.06)" style="fill:#414040"/><path d="M14.05,31.53a2.11,2.11,0,0,1-1.36-.5L7.74,26.8a2.09,2.09,0,1,1,2.72-3.18l4.95,4.23a2.09,2.09,0,0,1-1.22,3.67Zm-5-7.39a1.1,1.1,0,0,0-.72,1.94l5,4.23a1.12,1.12,0,0,0,1.55-.12,1.11,1.11,0,0,0-.12-1.55l-5-4.23A1.06,1.06,0,0,0,9.1,24.14Z" transform="translate(-0.06 -0.06)" style="fill:#414040"/><path d="M9.17,55.14H5.74A1.6,1.6,0,0,1,5.49,52a1,1,0,0,1,.25,0H9.17a1.6,1.6,0,0,1,0,3.19Z" transform="translate(-0.06 -0.06)" style="fill:#414040"/><path d="M9.17,55.64H5.74a2.09,2.09,0,1,1-.29-4.17H9.17a2.09,2.09,0,0,1,.29,4.17ZM5.74,52.46a1.1,1.1,0,1,0-.21,2.19H9.17a1.1,1.1,0,0,0,.21-2.19H5.74Z" transform="translate(-0.06 -0.06)" style="fill:#414040"/><path d="M89.36,54.9H84.17a1.59,1.59,0,0,1,0-3.18h5.16a1.59,1.59,0,0,1,0,3.18Z" transform="translate(-0.06 -0.06)" style="fill:#414040"/><path d="M89.36,55.4H84.17a2.09,2.09,0,0,1,0-4.18h5.15a2.09,2.09,0,1,1,0,4.18Zm-5.19-3.19a1.1,1.1,0,0,0,0,2.2h5.15a1.1,1.1,0,1,0,0-2.2Z" transform="translate(-0.06 -0.06)" style="fill:#414040"/><path d="M78.63,31.53A1.58,1.58,0,0,1,77,30a1.56,1.56,0,0,1,.67-1.31l4.6-3.3a1.59,1.59,0,0,1,1.86,2.59l-4.6,3.3A1.63,1.63,0,0,1,78.63,31.53Z" transform="translate(-0.06 -0.06)" style="fill:#414040"/><path d="M78.63,32a2.1,2.1,0,0,1-2.07-2.43,2,2,0,0,1,.85-1.35L82,24.93a2.08,2.08,0,0,1,2.9.48h0A2,2,0,0,1,85.29,27a2.09,2.09,0,0,1-.85,1.36l-4.6,3.3A2,2,0,0,1,78.63,32Zm4.59-6.49a1.14,1.14,0,0,0-.64.21L78,29a1.11,1.11,0,0,0-.45.72,1.09,1.09,0,0,0,.19.82,1.13,1.13,0,0,0,1.54.25l4.6-3.3a1.14,1.14,0,0,0,.44-.72,1.09,1.09,0,0,0-.19-.82A1.1,1.1,0,0,0,83.22,25.53Z" transform="translate(-0.06 -0.06)" style="fill:#414040"/><path d="M59.1,15.77a1.58,1.58,0,0,1-.71-.17,1.6,1.6,0,0,1-.72-2.14L61,6.78a1.59,1.59,0,1,1,2.85,1.43h0l-3.33,6.67A1.6,1.6,0,0,1,59.1,15.77Z" transform="translate(-0.06 -0.06)" style="fill:#414040"/><path d="M59.1,16.26a2,2,0,0,1-.94-.22,2.08,2.08,0,0,1-.94-2.79h0l3.34-6.68a2.09,2.09,0,0,1,3.74,1.86h0L61,15.14A2.07,2.07,0,0,1,59.1,16.26ZM62.44,6.4a1,1,0,0,0-.35.06,1.09,1.09,0,0,0-.64.55l-3.28,6.67a1.08,1.08,0,0,0,.48,1.46h0a1.12,1.12,0,0,0,1.47-.49L63.47,8a1.11,1.11,0,0,0,.06-.84A1.07,1.07,0,0,0,63,6.52,1.12,1.12,0,0,0,62.44,6.4Z" transform="translate(-0.06 -0.06)" style="fill:#414040"/><path d="M16.32,12.69a1.63,1.63,0,0,1-.75-.18,1.59,1.59,0,0,1,.25-3.17,1.68,1.68,0,0,1,1.85.91,1.6,1.6,0,0,1-.51,2.2A1.64,1.64,0,0,1,16.32,12.69Z" transform="translate(-0.06 -0.06)" style="fill:#414040"/><path d="M16.32,13.19a2,2,0,0,1-.91-.21,2.08,2.08,0,0,1-1.66-2.32,2.11,2.11,0,0,1,2-1.82A2.17,2.17,0,0,1,18.07,10a2,2,0,0,1,.26,1.58,2.1,2.1,0,0,1-.93,1.3A2,2,0,0,1,16.32,13.19Zm-.15-3.4h-.35a1.1,1.1,0,0,0-1.12,1.08,1.08,1.08,0,0,0,1,1.11l.15,0a1.07,1.07,0,0,0,1.59-.68,1.17,1.17,0,0,0-.14-.84A1.3,1.3,0,0,0,16.17,9.79Z" transform="translate(-0.06 -0.06)" style="fill:#414040"/><path d="M76.17,14.78a1.58,1.58,0,0,1-1.6-1.58,1.55,1.55,0,0,1,.32-1h0l.06-.07h0l.16-.21A1.59,1.59,0,0,1,78,13a1.55,1.55,0,0,1-.32,1h0l-.18.24h0A1.53,1.53,0,0,1,76.17,14.78Z" transform="translate(-0.06 -0.06)" style="fill:#414040"/><path d="M76.17,15.28a2.09,2.09,0,0,1-1.87-1.16,2,2,0,0,1-.08-1.67h-.08l.57-.77a2.13,2.13,0,0,1,1.38-.81,2.09,2.09,0,0,1,2,3.32l-.54.72-.06-.05A1.9,1.9,0,0,1,76.17,15.28Zm-.85-2.79h0a1.13,1.13,0,0,0-.12,1.17,1.1,1.1,0,0,0,1,.61,1.06,1.06,0,0,0,.89-.47l.17-.22a1.18,1.18,0,0,0,.26-.7,1.11,1.11,0,0,0-.44-.89,1.09,1.09,0,0,0-.82-.2,1,1,0,0,0-.72.43Z" transform="translate(-0.06 -0.06)" style="fill:#414040"/><path d="M96.94,41H96.7a1.68,1.68,0,0,1-1.5-1.77A1.71,1.71,0,0,1,97,37.66a1.63,1.63,0,0,1,1.57,1.1,1.69,1.69,0,0,1-.63,1.9A1.58,1.58,0,0,1,96.94,41Zm-1-2.85a1.53,1.53,0,0,0-.44,1.65,1.55,1.55,0,0,0,1.45,1,1.48,1.48,0,0,0,1.4-1.39,1.54,1.54,0,0,0-1.2-1.63l-.24,1.58Z" transform="translate(-0.06 -0.06)" style="fill:#414040"/><path d="M96.94,41.48a1.61,1.61,0,0,1-.31,0,2.16,2.16,0,0,1-1.93-2.29,2.22,2.22,0,0,1,2.28-2,2.15,2.15,0,0,1,2,1.44,2.22,2.22,0,0,1-1.45,2.79,2.19,2.19,0,0,1-.63.1ZM96,39a1.06,1.06,0,0,0,0,.66,1,1,0,0,0,1.05.72Zm1.58-.4-.26,1.7a1.05,1.05,0,0,0,.57-.86,1,1,0,0,0-.31-.84Z" transform="translate(-0.06 -0.06)" style="fill:#414040"/></svg>