<svg id="Capa_1" data-name="Capa 1" xmlns="http://www.w3.org/2000/svg" viewBox="0 0 68.63 83.81"><title>IconoCerrarSesion</title><path d="M49.41,73.76h-.06a4.36,4.36,0,0,1-4.12-4.15V64.52a6.56,6.56,0,0,1-2.17-4.68,6.18,6.18,0,0,1,6.21-6.14,6,6,0,0,1,6,6v.14a5.89,5.89,0,0,1-2.53,4.83v4.94C52.8,72.05,51.38,73.76,49.41,73.76Zm-.14-17.19a3.34,3.34,0,0,0-3.34,3.27,3.87,3.87,0,0,0,1.6,2.86l.58.43v6.48a1.54,1.54,0,0,0,1.24,1.27h.06c.28,0,.47-.67.47-1.27V63l.76-.41a3.13,3.13,0,0,0,1.77-2.76,3.18,3.18,0,0,0-3.09-3.27Z" transform="translate(0.27 0)" style="fill:#414040"/><path d="M49.41,74.75h-.06a5.32,5.32,0,0,1-5.11-5.14V64.93a7.43,7.43,0,0,1-2.17-5.09,7.16,7.16,0,0,1,7.2-7.13,7,7,0,0,1,7,7v.13a6.84,6.84,0,0,1-2.53,5.31v4.46C53.74,72.58,51.92,74.75,49.41,74.75Zm-.14-20.06a5.19,5.19,0,0,0-5.22,5.15,5.67,5.67,0,0,0,1.86,4l.31.29v5.52a3.35,3.35,0,0,0,3.13,3.15h.06c1.41,0,2.35-1.27,2.35-3.15V64.2l.42-.3a4.91,4.91,0,0,0,2.11-4,5,5,0,0,0-4.79-5.21Zm.14,17.18a2.48,2.48,0,0,1-2.29-2.26v-6l-.18-.14a4.77,4.77,0,0,1-2-3.65,4.35,4.35,0,0,1,4.33-4.26,4.17,4.17,0,0,1,1.83,7.9l-.23.12v6C50.87,71,50.3,71.87,49.41,71.87Zm-.14-14.31a2.35,2.35,0,0,0-2.35,2.28,2.88,2.88,0,0,0,1.2,2.07l.77.57v-.07l1.28-.68a2.19,2.19,0,0,0-.9-4.17Z" transform="translate(0.27 0)" style="fill:#414040"/><rect x="31.12" y="42.57" width="2.88" height="6.64" style="fill:#414040"/><path d="M34.72,50.19H29.86V41.58h4.86Zm-2.88-2h.9V43.54H31.8Z" transform="translate(0.27 0)" style="fill:#414040"/><path d="M58.5,82.82H40.37a9.76,9.76,0,0,1-9.52-9.51V48.76a1.44,1.44,0,0,1,2.88,0V73.3a6.9,6.9,0,0,0,6.64,6.64H58.5c3.3,0,6-3,6-6.64v-.22a1.44,1.44,0,1,1,2.88,0h0v.22C67.35,78.56,63.38,82.82,58.5,82.82Z" transform="translate(0.27 0)" style="fill:#414040"/><path d="M58.5,83.81H40.37A10.77,10.77,0,0,1,29.86,73.3V48.76a2.43,2.43,0,0,1,4.86,0V73.3A5.94,5.94,0,0,0,40.37,79H58.5c2.75,0,5-2.53,5-5.65v-.22a2.43,2.43,0,0,1,4.86,0v.22C68.34,79.1,63.93,83.81,58.5,83.81ZM32.29,48.3a.45.45,0,0,0-.45.45h0V73.3a8.75,8.75,0,0,0,8.53,8.52H58.5c4.34,0,7.86-3.82,7.86-8.52v-.22a.44.44,0,0,0-.38-.51.45.45,0,0,0-.51.38.29.29,0,0,0,0,.13v.22c0,4.21-3.13,7.63-7,7.63H40.37a7.92,7.92,0,0,1-7.63-7.63V48.76a.45.45,0,0,0-.44-.46Z" transform="translate(0.27 0)" style="fill:#414040"/><path d="M65.91,68.3a1.46,1.46,0,0,1-1.44-1.44v-.22a1.44,1.44,0,0,1,2.88,0v.22a1.43,1.43,0,0,1-1.44,1.44Z" transform="translate(0.27 0)" style="fill:#414040"/><path d="M65.91,69.3a2.43,2.43,0,0,1-2.43-2.43v-.22a2.43,2.43,0,0,1,4.86,0v.22A2.43,2.43,0,0,1,65.91,69.3Zm0-3.1a.46.46,0,0,0-.44.45v.22a.44.44,0,0,0,.38.51.45.45,0,0,0,.51-.38.29.29,0,0,0,0-.13v-.22a.45.45,0,0,0-.45-.42Z" transform="translate(0.27 0)" style="fill:#414040"/><path d="M65.91,64.58a1.46,1.46,0,0,1-1.44-1.44V27.3a1.44,1.44,0,1,1,2.88,0h0V63.13a1.43,1.43,0,0,1-1.43,1.45Z" transform="translate(0.27 0)" style="fill:#414040"/><path d="M65.91,65.57a2.43,2.43,0,0,1-2.43-2.43V27.3a2.43,2.43,0,0,1,4.86,0V63.13a2.43,2.43,0,0,1-2.42,2.44Zm0-38.71a.46.46,0,0,0-.44.45V63.14a.44.44,0,0,0,.38.51.45.45,0,0,0,.51-.38.29.29,0,0,0,0-.13V27.3A.46.46,0,0,0,65.91,26.86Z" transform="translate(0.27 0)" style="fill:#414040"/><path d="M65.91,20.12a1.46,1.46,0,0,1-1.44-1.44v-.22a1.44,1.44,0,1,1,2.88,0v.22a1.43,1.43,0,0,1-1.44,1.44Z" transform="translate(0.27 0)" style="fill:#414040"/><path d="M65.91,21.11a2.43,2.43,0,0,1-2.43-2.43v-.22a2.43,2.43,0,0,1,4.86,0v.22A2.43,2.43,0,0,1,65.91,21.11Zm0-3.1a.46.46,0,0,0-.44.45v.22a.44.44,0,0,0,.38.51.45.45,0,0,0,.51-.38.29.29,0,0,0,0-.13v-.22a.45.45,0,0,0-.45-.45Z" transform="translate(0.27 0)" style="fill:#414040"/><path d="M65.91,24.3a1.43,1.43,0,0,1-1.44-1.44h0v-.22a1.44,1.44,0,0,1,2.88,0h0v.22a1.43,1.43,0,0,1-1.42,1.44Z" transform="translate(0.27 0)" style="fill:#414040"/><path d="M65.91,25.3a2.43,2.43,0,0,1-2.43-2.43v-.22a2.43,2.43,0,0,1,4.86,0v.22A2.43,2.43,0,0,1,65.91,25.3Zm0-3.1a.46.46,0,0,0-.44.45v.22a.44.44,0,0,0,.38.51.45.45,0,0,0,.51-.38.29.29,0,0,0,0-.13v-.22a.46.46,0,0,0-.45-.44Z" transform="translate(0.27 0)" style="fill:#414040"/><path d="M32.29,20.56a1.43,1.43,0,0,1-1.44-1.44h0V9.83C30.85,5,35.12,1,40.37,1H58.5a8.66,8.66,0,0,1,8.85,8.47v5a1.44,1.44,0,1,1-2.88,0V9.83a5.77,5.77,0,0,0-5.53-6,3.69,3.69,0,0,0-.47,0H40.37c-3.66,0-6.64,2.68-6.64,6v9.29a1.43,1.43,0,0,1-1.42,1.44Z" transform="translate(0.27 0)" style="fill:#414040"/><path d="M32.29,21.55a2.43,2.43,0,0,1-2.43-2.43V9.83C29.86,4.41,34.58,0,40.37,0H58.5a9.62,9.62,0,0,1,9.84,9.4v5.08a2.43,2.43,0,0,1-4.86,0V9.83a4.76,4.76,0,0,0-4.51-5H40.37c-3.12,0-5.65,2.24-5.65,5v9.29a2.43,2.43,0,0,1-2.43,2.43ZM40.37,2c-4.7,0-8.53,3.52-8.53,7.85v9.29a.45.45,0,0,0,.45.45h0a.45.45,0,0,0,.45-.45h0V9.83c0-3.84,3.42-7,7.63-7H58.5a6.74,6.74,0,0,1,7,6.47,4.69,4.69,0,0,1,0,.53v4.65a.45.45,0,0,0,.89,0V9.83A7.68,7.68,0,0,0,58.88,2H40.37Z" transform="translate(0.27 0)" style="fill:#414040"/><rect x="31.12" y="18.68" width="2.88" height="6.64" style="fill:#414040"/><path d="M34.72,26.3H29.86V17.68h4.86Zm-2.92-2h.9V19.64h-.9Z" transform="translate(0.27 0)" style="fill:#414040"/><path d="M49.34,46.84A13.09,13.09,0,0,1,40,43l2-2A10.3,10.3,0,1,0,42.45,26l-1.92-2.14a13.17,13.17,0,1,1,8.78,23Z" transform="translate(0.27 0)" style="fill:#414040"/><path d="M49.34,47.84a14,14,0,0,1-10-4.16l-.7-.7,3.43-3.43.7.7a9.31,9.31,0,1,0,.39-13.51l-.74.66-3.23-3.62.73-.66a14.16,14.16,0,1,1,9.44,24.72ZM41.45,43a12.18,12.18,0,1,0,7.9-21.46A12.21,12.21,0,0,0,42,24l.6.67a11.28,11.28,0,1,1-.51,17.69Z" transform="translate(0.27 0)" style="fill:#414040"/><path d="M48.11,40.58H7.41A6.42,6.42,0,0,1,6.9,27.75a4.34,4.34,0,0,1,.51,0h40.7a6.42,6.42,0,0,1,0,12.83Zm-40.7-10a3.54,3.54,0,0,0,0,7.08h40.7a3.54,3.54,0,1,0,0-7.08H7.41Z" transform="translate(0.27 0)" style="fill:#414040"/><path d="M48.11,41.57H7.41a7.41,7.41,0,1,1-.54-14.81,4.86,4.86,0,0,1,.54,0h40.7a7.41,7.41,0,0,1,0,14.81ZM7.41,28.74a5.43,5.43,0,1,0-.47,10.85H48.11a5.43,5.43,0,0,0,0-10.85Zm40.7,10H7.41a4.53,4.53,0,0,1,0-9.06h40.7a4.53,4.53,0,1,1,0,9.06ZM7.41,31.61a2.55,2.55,0,0,0,0,5.1h40.7a2.55,2.55,0,1,0,0-5.1Z" transform="translate(0.27 0)" style="fill:#414040"/></svg>