<svg id="Capa_1" data-name="Capa 1" xmlns="http://www.w3.org/2000/svg" viewBox="0 0 74.62 74.59"><title>IconoInicio</title><path d="M73.56,26.26a1.15,1.15,0,0,0-.47-.92l-33-23.46a5,5,0,0,0-5.67,0l-33,23.46a1.14,1.14,0,0,0-.48.93v8.88a1.18,1.18,0,0,0,1.17,1.14H6.4V70.66a2.9,2.9,0,0,0,2.89,2.91H65.21a2.89,2.89,0,0,0,2.91-2.87V36.29h4.32a1.14,1.14,0,0,0,1.13-1.13h0ZM67,34a1.15,1.15,0,0,0-1.13,1.13V70.67a.61.61,0,0,1-.16.45.66.66,0,0,1-.46.19H9.35a.64.64,0,0,1-.62-.65V35.17A1.13,1.13,0,0,0,7.61,34H3.25V26.86L35.77,3.73a2.69,2.69,0,0,1,3,0L71.28,26.86V34Z" transform="translate(0 0.03)" style="fill:#414040"/><path d="M65.21,74.56H9.35a3.9,3.9,0,0,1-3.89-3.9V37.28H2.16A2.18,2.18,0,0,1,0,35.15V26.27A2.12,2.12,0,0,1,.91,24.5L33.91,1a6,6,0,0,1,6.82,0l33,23.46a2.12,2.12,0,0,1,.89,1.73V35.1a2.12,2.12,0,0,1-2.11,2.13h-3.4V70.62a3.88,3.88,0,0,1-3.87,3.89h0ZM37.21,2A3.8,3.8,0,0,0,35,2.68L2,26.15a.14.14,0,0,0-.06.12v8.88c0,.07.1.15.18.15H7.4V70.66a1.92,1.92,0,0,0,1.91,1.92h55.9A1.87,1.87,0,0,0,66.57,72a1.92,1.92,0,0,0,.56-1.36V35.3h5.3a.14.14,0,0,0,.15-.13v-8.9a.14.14,0,0,0-.07-.12l-33-23.46A4.07,4.07,0,0,0,37.24,2Zm28,70.3H9.35a1.63,1.63,0,0,1-1.61-1.63h0V35.17A.15.15,0,0,0,7.61,35H2.26V26.35L35.19,2.93a3.67,3.67,0,0,1,4.18,0L72.28,26.35V35H67a.14.14,0,0,0-.14.14V70.65a1.57,1.57,0,0,1-.43,1.14A1.72,1.72,0,0,1,65.21,72.3Zm-.37-1.6ZM9.72,70.32H64.84V35.15A2.12,2.12,0,0,1,67,33h3.35V27.38L38.22,4.5a1.7,1.7,0,0,0-1.86,0L4.24,27.34V33H7.61a2.13,2.13,0,0,1,2.11,2.14Z" transform="translate(0 0.03)" style="fill:#414040"/><path d="M51.91,5.75a.62.62,0,0,1,.6-.6H64.72a.58.58,0,0,1,.6.58h0V16.56l2.26,1.63V5.72a2.84,2.84,0,0,0-2.83-2.85H52.51a2.86,2.86,0,0,0-2.83,2.65l2.23,1.57Z" transform="translate(0 0.03)" style="fill:#414040"/><path d="M68.54,20.11l-4.25-3.05V6.13H52.91V9L48.65,6l.05-.57a3.84,3.84,0,0,1,3.82-3.55H64.73a3.86,3.86,0,0,1,3.85,3.84ZM66.28,16l.28.2V5.72a1.85,1.85,0,0,0-1.84-1.86H52.48a1.83,1.83,0,0,0-1.73,1.22l.22.16a1.59,1.59,0,0,1,1.51-1.1H64.69a1.59,1.59,0,0,1,1.59,1.57Z" transform="translate(0 0.03)" style="fill:#414040"/></svg>