<svg id="Capa_1" data-name="Capa 1" xmlns="http://www.w3.org/2000/svg" viewBox="0 0 93.7 74.35"><title>IconoAvisos</title><path d="M76.33,66.56a2.12,2.12,0,0,1-1.26-.42c-3.91-3-7.32-9.3-8.54-13.7a31.43,31.43,0,0,1-1.34-8.88A73.25,73.25,0,0,1,66,34.21a2.08,2.08,0,1,1,4.1.72h0a67.43,67.43,0,0,0-.73,8.63,28.16,28.16,0,0,0,1.19,7.68c1,3.72,4,9.18,7.06,11.5a2.08,2.08,0,0,1-1.27,3.73Z" transform="translate(-0.03 0.02)" style="fill:#414040"/><path d="M76.33,66.89a2.39,2.39,0,0,1-1.48-.51c-4-3-7.44-9.43-8.68-13.89a32.3,32.3,0,0,1-1.35-8.89,72.4,72.4,0,0,1,.8-9.41,2.47,2.47,0,0,1,1-1.59,2.51,2.51,0,0,1,1.84-.41,2.44,2.44,0,0,1,2,2.83,64.75,64.75,0,0,0-.72,8.57,27.43,27.43,0,0,0,1.17,7.58c1,3.67,3.95,9,6.93,11.31a2.45,2.45,0,0,1,.45,3.43A2.42,2.42,0,0,1,76.33,66.89Zm-8.3-34a1.71,1.71,0,0,0-1.68,1.41,70.57,70.57,0,0,0-.79,9.29,31.24,31.24,0,0,0,1.33,8.69c1.2,4.35,4.55,10.55,8.41,13.5a1.72,1.72,0,0,0,2.39-.32,1.7,1.7,0,0,0-.31-2.38h0c-3.1-2.38-6.14-7.92-7.19-11.7A28.06,28.06,0,0,1,69,43.59a68.53,68.53,0,0,1,.74-8.7,1.69,1.69,0,0,0-.29-1.27,1.66,1.66,0,0,0-1.1-.7Z" transform="translate(-0.03 0.02)" style="fill:#414040"/><path d="M53.43,14.66l-3.38-2.42,1.21-1.69a3.81,3.81,0,1,0-6.42-.34l1,1.81-3.62,2.05-1-1.81A8,8,0,1,1,54.64,13Z" transform="translate(-0.03 0.02)" style="fill:#414040"/><path d="M53.49,15.18l-4-2.85,1.42-2a3.34,3.34,0,0,0,.64-2A3.44,3.44,0,1,0,45.12,10l1.21,2.13-4.22,2.41L40.9,12.43A8.34,8.34,0,1,1,56.5,8.32a8.24,8.24,0,0,1-1.56,4.84Zm-3-3,2.78,2,1-1.39a7.61,7.61,0,1,0-12.78-.67l.85,1.49,3-1.69-.84-1.49a4.08,4.08,0,0,1-.54-2,4.18,4.18,0,0,1,8.36,0,4.11,4.11,0,0,1-.78,2.42Z" transform="translate(-0.03 0.02)" style="fill:#414040"/><path d="M68.14,35.94H68a2.08,2.08,0,0,1-1.91-2.24h0c0-.48.05-1,.05-1.46a17.74,17.74,0,0,0-34.63-5.68,2.1,2.1,0,0,1-4-1.31h0a21.91,21.91,0,0,1,42.71,7A13.33,13.33,0,0,1,70.12,34,2.07,2.07,0,0,1,68.14,35.94Z" transform="translate(-0.03 0.02)" style="fill:#414040"/><path d="M68.14,36.31h-.2a2.45,2.45,0,0,1-2.24-2.64c0-.47,0-1,0-1.43a17.37,17.37,0,0,0-33.87-5.58,2.45,2.45,0,0,1-4.65-1.55,22.28,22.28,0,0,1,43.43,7.13,15.74,15.74,0,0,1-.07,1.82A2.47,2.47,0,0,1,68.14,36.31ZM48.37,14A18.22,18.22,0,0,1,66.49,32.24a12.29,12.29,0,0,1-.06,1.49A1.71,1.71,0,0,0,68,35.57h.13A1.7,1.7,0,0,0,69.83,34c0-.58.07-1.17.07-1.76a21.53,21.53,0,0,0-42-6.89,1.72,1.72,0,0,0,2.39,2.07,1.77,1.77,0,0,0,.86-1A18.11,18.11,0,0,1,48.37,14Z" transform="translate(-0.03 0.02)" style="fill:#414040"/><path d="M28.49,34.44h0a2.07,2.07,0,0,1-2.08-2.06v0h0v-.15a2.09,2.09,0,0,1,2.07-2.1h0a2.08,2.08,0,0,1,2,1.65,2.74,2.74,0,0,1,.07.5A2.09,2.09,0,0,1,29.7,34,2,2,0,0,1,28.49,34.44Z" transform="translate(-0.03 0.02)" style="fill:#414040"/><path d="M28.49,34.81A2.44,2.44,0,0,1,26,32.38v-.14a2.45,2.45,0,0,1,4.85-.58,3.43,3.43,0,0,1,.08.56,2.5,2.5,0,0,1-2.48,2.59Zm0-4.35a1.72,1.72,0,0,0-1.71,1.73h0v.12a1.72,1.72,0,0,0,1.66,1.76h0a1.74,1.74,0,0,0,1-.36,1.72,1.72,0,0,0,.7-1.45,3.18,3.18,0,0,0-.06-.43A1.74,1.74,0,0,0,28.49,30.46Z" transform="translate(-0.03 0.02)" style="fill:#414040"/><path d="M28.86,40.37a2.19,2.19,0,1,1,2.07-2.71,2.25,2.25,0,0,1-.36,1.83,2,2,0,0,1-1.71.88Z" transform="translate(-0.03 0.02)" style="fill:#414040"/><path d="M28.86,40.74a2.57,2.57,0,0,1-2.48-2.66,2.61,2.61,0,0,1,.91-1.87,2.36,2.36,0,0,1,1.14-.56,2.45,2.45,0,0,1,2.86,1.91,2.62,2.62,0,0,1-.42,2.12,2.74,2.74,0,0,1-2,1.06Zm0-4.39h-.32a1.82,1.82,0,1,0,.64,3.58l.11,0a1.68,1.68,0,0,0,.94-.67,1.8,1.8,0,0,0,.3-1.54,1.69,1.69,0,0,0-1.64-1.35Z" transform="translate(-0.03 0.02)" style="fill:#414040"/><path d="M20.49,65.91a2.08,2.08,0,0,1-1.13-3.83,18,18,0,0,0,6.13-8,25.62,25.62,0,0,0,1.66-9,2.08,2.08,0,0,1,4.16.11h0a29.41,29.41,0,0,1-1.92,10.37,22.27,22.27,0,0,1-7.77,10A2.18,2.18,0,0,1,20.49,65.91Z" transform="translate(-0.03 0.02)" style="fill:#414040"/><path d="M20.49,66.28a2.45,2.45,0,0,1-1.33-4.51,17.66,17.66,0,0,0,6-7.81A25.17,25.17,0,0,0,26.8,45a2.45,2.45,0,1,1,4.9.13h0a29.65,29.65,0,0,1-2,10.53,22.64,22.64,0,0,1-7.91,10.19A2.41,2.41,0,0,1,20.49,66.28ZM29.24,43.4a1.7,1.7,0,0,0-1.75,1.65h0a25.85,25.85,0,0,1-1.69,9.16,18.33,18.33,0,0,1-6.27,8.17A1.71,1.71,0,0,0,19,64.75a1.74,1.74,0,0,0,2.36.52A21.82,21.82,0,0,0,29,55.43a29.13,29.13,0,0,0,1.91-10.28,1.71,1.71,0,0,0-1.66-1.75Z" transform="translate(-0.03 0.02)" style="fill:#414040"/><rect x="18.17" y="62.83" width="60.2" height="4.16" style="fill:#414040"/><path d="M78.77,67.34H17.83V62.43H78.77Zm-60.2-.75H78V63.18H18.57Z" transform="translate(-0.03 0.02)" style="fill:#414040"/><path d="M38.1,74a9.5,9.5,0,0,1-8.8-5.85l-.81-1.92,3.84-1.61.8,1.92a5.38,5.38,0,0,0,9.81.25l.91-1.87,3.75,1.81-.91,1.87A9.59,9.59,0,0,1,38.1,74Z" transform="translate(-0.03 0.02)" style="fill:#414040"/><path d="M38.1,74.33A9.89,9.89,0,0,1,29,68.25L28,66l4.52-1.89.95,2.26a5,5,0,0,0,9.13.23l1.06-2.21,4.42,2.18L47,68.77A10,10,0,0,1,38.1,74.33ZM29,66.39,29.64,68a9.17,9.17,0,0,0,16.72.43l.74-1.54L44,65.38l-.74,1.53a5.75,5.75,0,0,1-10.49-.27l-.66-1.57Z" transform="translate(-0.03 0.02)" style="fill:#414040"/><path d="M7.23,50.07h0L5.57,48.82l2.49-3.33L11.39,48,8.9,51.32ZM1.59,42.56l-.73-2,3.89-1.47L6.22,43,2.33,44.56ZM.43,35.26l.84-4.08L5.35,32,4.51,36.1ZM3.8,26.43l2.89-3,3,2.9-2.9,3Z" transform="translate(-0.03 0.02)" style="fill:#414040"/><path d="M9,51.84l-3.92-3L8,45l3.92,2.94ZM7.49,49.77l1.36,1L10.9,48,8.17,46l-2,2.74ZM2.15,45,.41,40.42,5,38.68l1.74,4.59ZM2,42.45l.61,1.6,3.19-1.21-1.21-3.2L1.37,40.85Zm2.86-5.9-4.8-1,1-4.81,4.81,1ZM.9,35l3.35.69.69-3.35-3.35-.69Zm5.92-5.12L3.3,26.46l3.41-3.52,3.52,3.41ZM4.35,26.44,6.8,28.82l2.38-2.45L6.73,24Z" transform="translate(-0.03 0.02)" style="fill:#414040"/><path d="M82.33,48l3.33-2.49,2.5,3.33-3.34,2.49Zm5.17-4.93.74-1.94h0l.73-2,3.9,1.47-1.48,3.93Zm1.29-9-.42-2,4.08-.84.84,4.08-4.08.84Zm-3.3-6.23-1.44-1.49,3-2.9,2.9,3-3,2.9Z" transform="translate(-0.03 0.02)" style="fill:#414040"/><path d="M84.75,51.83l-2.94-3.92L85.73,45l2.94,3.92Zm-1.9-3.77,2.05,2.73,2.74-2-2.06-2.74ZM91.61,45,87,43.27l1.74-4.59,4.59,1.74ZM88,42.84l3.2,1.21,1.21-3.2-3.2-1.21Zm.94-6.29-1-4.8,4.81-1,1,4.81Zm-.11-4.22.69,3.35L92.85,35l-.69-3.35Zm-1.88-2.46-3.44-3.52L87,22.94l3.48,3.52Zm-1.17-2.31L87,28.79l2.45-2.38L87,24l-2.45,2.38Z" transform="translate(-0.03 0.02)" style="fill:#414040"/></svg>