<svg xmlns="http://www.w3.org/2000/svg" width="28.224" height="21.832" viewBox="0 0 28.224 21.832">
  <g id="car" transform="translate(0 -53)">
    <g id="Grupo_1453" data-name="Grupo 1453" transform="translate(0 53)">
      <g id="Grupo_1452" data-name="Grupo 1452" transform="translate(0 0)">
        <path id="Trazado_708" data-name="Trazado 708" d="M27.145,61.112l-.615-.651-2.159-5.82A2.532,2.532,0,0,0,22.013,53H6.592a2.524,2.524,0,0,0-2.358,1.64L2.1,60.388l-.887.82A3.465,3.465,0,0,0,0,63.844v8.479a2.521,2.521,0,0,0,2.521,2.509H4.113a2.521,2.521,0,0,0,2.521-2.509v-1.23H21.591v1.23a2.521,2.521,0,0,0,2.521,2.509H25.7a2.521,2.521,0,0,0,2.521-2.509v-8.7A3.5,3.5,0,0,0,27.145,61.112ZM5.367,55.05a1.3,1.3,0,0,1,1.224-.844H22.019a1.313,1.313,0,0,1,1.224.844l1.882,5.066H23.719a4.137,4.137,0,0,0-8.184,0H3.486Zm17.122,5.066H16.754a2.929,2.929,0,0,1,5.735,0ZM5.428,72.323a1.311,1.311,0,0,1-1.315,1.3H2.521a1.311,1.311,0,0,1-1.315-1.3v-1.58a2.449,2.449,0,0,0,1.315.35H5.428Zm21.591,0a1.311,1.311,0,0,1-1.315,1.3H24.111a1.315,1.315,0,0,1-1.315-1.3v-1.23H25.7a2.449,2.449,0,0,0,1.315-.35v1.58ZM25.7,69.886H2.521A1.3,1.3,0,0,1,1.206,68.6V63.844a2.264,2.264,0,0,1,.8-1.725l.024-.024.82-.772H25.692l.579.621c.006.012.024.018.03.03a2.273,2.273,0,0,1,.712,1.646V68.6h.006A1.3,1.3,0,0,1,25.7,69.886Z" transform="translate(0 -53)"/>
      </g>
    </g>
    <g id="Grupo_1455" data-name="Grupo 1455" transform="translate(2.835 63.735)">
      <g id="Grupo_1454" data-name="Grupo 1454">
        <path id="Trazado_709" data-name="Trazado 709" d="M52.126,231H47.6a.6.6,0,0,0-.6.6v3.136a.6.6,0,0,0,.6.6h4.523a.6.6,0,0,0,.6-.6V231.6A.6.6,0,0,0,52.126,231Zm-.6,3.136H48.206v-1.93h3.317Z" transform="translate(-47 -231)"/>
      </g>
    </g>
    <g id="Grupo_1457" data-name="Grupo 1457" transform="translate(19.661 63.735)">
      <g id="Grupo_1456" data-name="Grupo 1456">
        <path id="Trazado_710" data-name="Trazado 710" d="M331.126,231H326.6a.6.6,0,0,0-.6.6v3.136a.6.6,0,0,0,.6.6h4.523a.6.6,0,0,0,.6-.6V231.6A.6.6,0,0,0,331.126,231Zm-.6,3.136h-3.317v-1.93h3.317Z" transform="translate(-326 -231)"/>
      </g>
    </g>
    <g id="Grupo_1459" data-name="Grupo 1459" transform="translate(10.596 66.268)">
      <g id="Grupo_1458" data-name="Grupo 1458" transform="translate(0 0)">
        <path id="Trazado_711" data-name="Trazado 711" d="M182.129,273H176.3a.6.6,0,0,0,0,1.206h5.826a.6.6,0,0,0,0-1.206Z" transform="translate(-175.7 -273)"/>
      </g>
    </g>
    <g id="Grupo_1461" data-name="Grupo 1461" transform="translate(10.596 64.398)">
      <g id="Grupo_1460" data-name="Grupo 1460" transform="translate(0 0)">
        <path id="Trazado_712" data-name="Trazado 712" d="M182.129,242H176.3a.6.6,0,0,0,0,1.206h5.826a.6.6,0,0,0,0-1.206Z" transform="translate(-175.7 -242)"/>
      </g>
    </g>
  </g>
</svg>
