<svg id="Capa_1" data-name="Capa 1" xmlns="http://www.w3.org/2000/svg" viewBox="0 0 87.6 97.37"><title>LogoDostopD</title><path d="M326.77,346.94h-64.2V363.6h87.6v-.55C350.17,352.71,341.8,346.94,326.77,346.94Z" transform="translate(-262.57 -346.89)" style="fill:#d5d7d6"/><polygon points="11.62 0.02 0 0.05 11.63 16.31 0 16.31 0 95.09 23.3 95.09 23.3 16.31 11.62 0.02" style="fill:#eb3533"/><polygon points="23.3 0.02 34.95 16.7 46.59 16.68 34.92 0 23.3 0.02" style="fill:#eb3533"/><polygon points="46.59 0.02 58.24 16.7 69.89 16.68 58.22 0 46.59 0.02" style="fill:#eb3533"/><path d="M344.11,363.6h6.06v-.54c0-8.88-6.19-14.37-17.44-15.75Z" transform="translate(-262.57 -346.89)" style="fill:#eb3533"/><path d="M326.77,363.6v52.67q0,7.44-5.1,9.45t-18.6,2h-40.5v16.54h41.55q25.65,0,35.85-5.81t10.2-22.19V363.6Z" transform="translate(-262.57 -346.89)" style="fill:#6c6d6c"/></svg>