<svg xmlns="http://www.w3.org/2000/svg" xmlns:xlink="http://www.w3.org/1999/xlink" width="600" height="270" viewBox="0 0 194.777 71.248">
  <defs>
    <filter id="Trazado_6161" x="36.7" y="2.563" width="158.077" height="68.685" filterUnits="userSpaceOnUse">
      <feOffset dy="3" input="SourceAlpha"/>
      <feGaussianBlur stdDeviation="5" result="blur"/>
      <feFlood/>
      <feComposite operator="in" in2="blur"/>
      <feComposite in="SourceGraphic"/>
    </filter>
    <filter id="Trazado_1" x="16.087" y="0" width="36.199" height="65.18" filterUnits="userSpaceOnUse">
      <feOffset dx="3" dy="3" input="SourceAlpha"/>
      <feGaussianBlur stdDeviation="4" result="blur-2"/>
      <feFlood flood-opacity="0.8"/>
      <feComposite operator="in" in2="blur-2"/>
      <feComposite in="SourceGraphic"/>
    </filter>
    <linearGradient id="linear-gradient" x1="0.5" x2="0.5" y2="0.698" gradientUnits="objectBoundingBox">
      <stop offset="0" stop-color="#0245e8"/>
      <stop offset="1" stop-color="#003cce"/>
    </linearGradient>
    <filter id="Trazado_2" x="0" y="7.749" width="36.198" height="57.431" filterUnits="userSpaceOnUse">
      <feOffset dx="3" dy="3" input="SourceAlpha"/>
      <feGaussianBlur stdDeviation="4" result="blur-3"/>
      <feFlood flood-opacity="0.8"/>
      <feComposite operator="in" in2="blur-3"/>
      <feComposite in="SourceGraphic"/>
    </filter>
  </defs>
  <g id="Componente_3_1" data-name="Componente 3 – 1" transform="translate(9 9)">
    <g id="Componente_2_1" data-name="Componente 2 – 1" transform="translate(42.7 5.563)">
      <g transform="matrix(1, 0, 0, 1, -51.7, -14.56)" filter="url(#Trazado_6161)">
        <path id="Trazado_6161-2" data-name="Trazado 6161" d="M5.76,23.963c0,6.666,4.315,11.1,9.748,11.1a8.068,8.068,0,0,0,7.013-3.506v3.16h5.471V6.2H22.521V16.334a8.759,8.759,0,0,0-6.974-3.314C10.075,13.02,5.76,17.3,5.76,23.963Zm16.8.077c0,4.046-2.7,6.281-5.664,6.281-2.89,0-5.626-2.312-5.626-6.358s2.736-6.2,5.626-6.2C19.862,17.759,22.56,19.994,22.56,24.04Zm29.977,0c0-6.743-4.816-11.02-10.981-11.02S30.574,17.3,30.574,24.04c0,6.7,4.662,11.02,10.827,11.02C47.6,35.06,52.537,30.744,52.537,24.04Zm-16.491,0c0-4.277,2.582-6.319,5.433-6.319s5.51,2.042,5.51,6.319c0,4.238-2.736,6.319-5.587,6.319C38.511,30.359,36.045,28.278,36.045,24.04Zm35.68,4.585c-.154-7.822-11.983-5.394-11.983-9.286,0-1.233,1.04-2.042,3.044-2.042,2.119,0,3.429,1.117,3.583,2.774h5.163c-.308-4.238-3.429-7.051-8.592-7.051-5.279,0-8.438,2.851-8.438,6.4,0,7.822,12.06,5.394,12.06,9.209,0,1.233-1.156,2.2-3.275,2.2-2.158,0-3.66-1.233-3.853-2.851H54c.231,3.969,3.969,7.09,9.324,7.09C68.527,35.06,71.725,32.286,71.725,28.625Zm3.93-.539c0,4.893,2.736,6.627,6.82,6.627h3.391V30.166h-2.5c-1.7,0-2.273-.616-2.273-2.042V17.8h4.778V13.367H81.088V8.088H75.655v5.279H73.112V17.8h2.543Zm33.368-4.046c0-6.743-4.816-11.02-10.981-11.02S87.06,17.3,87.06,24.04c0,6.7,4.662,11.02,10.827,11.02C104.091,35.06,109.023,30.744,109.023,24.04Zm-16.491,0c0-4.277,2.582-6.319,5.433-6.319s5.51,2.042,5.51,6.319c0,4.238-2.736,6.319-5.587,6.319C95,30.359,92.532,28.278,92.532,24.04Zm24.506-7.591V13.367h-5.394V44.885h5.394V31.669a8.714,8.714,0,0,0,7.051,3.391c5.471,0,9.748-4.431,9.748-11.1S129.56,13.02,124.089,13.02A8.527,8.527,0,0,0,117.037,16.449Zm11.29,7.514c0,4.046-2.736,6.358-5.664,6.358-2.89,0-5.626-2.235-5.626-6.281s2.736-6.281,5.626-6.281C125.591,17.759,128.327,19.917,128.327,23.963Z" transform="translate(45.94 8.36)" fill="#fff"/>
      </g>
    </g>
    <g id="Componente_1_1" data-name="Componente 1 – 1">
      <g id="Grupo_1481" data-name="Grupo 1481" transform="translate(0 41.18) rotate(-90)">
        <g transform="matrix(0, 1, -1, 0, 50.18, -9)" filter="url(#Trazado_1)">
          <path id="Trazado_1-2" data-name="Trazado 1" d="M7.065,12.2H41.18A47.182,47.182,0,0,0,36.99,0H0C0,6.738,3.163,12.2,7.065,12.2Z" transform="translate(25.09 50.18) rotate(-90)" fill="#00298d" fill-rule="evenodd"/>
        </g>
        <g transform="matrix(0, 1, -1, 0, 50.18, -9)" filter="url(#Trazado_2)">
          <path id="Trazado_2-2" data-name="Trazado 2" d="M0,12.2H33.431C29.923,4.714,24.829,0,19.156,0H0Z" transform="translate(9 50.18) rotate(-90)" fill-rule="evenodd" fill="url(#linear-gradient)"/>
        </g>
      </g>
    </g>
  </g>
</svg>
