<svg xmlns="http://www.w3.org/2000/svg" xmlns:xlink="http://www.w3.org/1999/xlink" width="44.064" height="53.21" viewBox="0 0 44.064 53.21"><defs><filter id="a" x="11.411" y="0" width="32.653" height="53.21" filterUnits="userSpaceOnUse"><feOffset dx="3" dy="3" input="SourceAlpha"/><feGaussianBlur stdDeviation="4" result="b"/><feFlood flood-opacity="0.8"/><feComposite operator="in" in2="b"/><feComposite in="SourceGraphic"/></filter><linearGradient id="c" x1="0.5" x2="0.5" y2="0.698" gradientUnits="objectBoundingBox"><stop offset="0" stop-color="#0245e8"/><stop offset="1" stop-color="#003cce"/></linearGradient><filter id="d" x="0" y="5.497" width="32.652" height="47.714" filterUnits="userSpaceOnUse"><feOffset dx="3" dy="3" input="SourceAlpha"/><feGaussianBlur stdDeviation="4" result="e"/><feFlood flood-opacity="0.8"/><feComposite operator="in" in2="e"/><feComposite in="SourceGraphic"/></filter></defs><g transform="translate(9 38.21) rotate(-90)"><g transform="matrix(0, 1, -1, 0, 38.21, -9)" filter="url(#a)"><path d="M5.012,8.653h24.2A33.468,33.468,0,0,0,26.238,0H0C0,4.78,2.243,8.653,5.012,8.653Z" transform="translate(20.41 38.21) rotate(-90)" fill="#00298d" fill-rule="evenodd"/></g><g transform="matrix(0, 1, -1, 0, 38.21, -9)" filter="url(#d)"><path d="M0,8.652H23.714C21.226,3.344,17.612,0,13.588,0H0Z" transform="translate(9 38.21) rotate(-90)" fill-rule="evenodd" fill="url(#c)"/></g></g></svg>